<svg role="img" viewBox="0 0 24 24" xmlns="http://www.w3.org/2000/svg"><title>Amazon S3</title><path d="M6.72 19.24c-.46.32-1.56.84-3.12 1.16-.24.04-.44-.2-.32-.4.76-1.04 1.96-2.2 3.2-2.84.2-.1.44.04.24.08zm5.44-1.84c-.16 2.08-.92 3.96-3.24 4.28-.24.04-.2-.2.04-.32 2.04-1.04 2.6-2.88 2.8-4.2.04-.24.4-.28.4.24zM12 2C6.48 2 2 6.48 2 12s4.48 10 10 10 10-4.48 10-10S17.52 2 12 2zm-1.5 14.5c-1.68 0-3.04-.6-3.04-1.84 0-.8.56-1.48 1.36-1.92-.44-.68-.68-1.52-.68-2.48 0-2.12 1.64-3.84 3.84-3.84s3.84 1.72 3.84 3.84c0 .96-.24 1.8-.68 2.48.8.44 1.36 1.12 1.36 1.92 0 1.24-1.36 1.84-3.04 1.84h-3z"/></svg>
