<?xml version="1.0" encoding="UTF-8" standalone="no"?>
<!-- Created with Inkscape (http://www.inkscape.org/) -->

<svg
   width="12.390124mm"
   height="12.390119mm"
   viewBox="0 0 12.390124 12.390119"
   version="1.1"
   id="svg1"
   xml:space="preserve"
   inkscape:version="1.4.3 (0d15f75042, 2025-12-25)"
   sodipodi:docname="Saddle App Icons Main.svg"
   xmlns:inkscape="http://www.inkscape.org/namespaces/inkscape"
   xmlns:sodipodi="http://sodipodi.sourceforge.net/DTD/sodipodi-0.dtd"
   xmlns:xlink="http://www.w3.org/1999/xlink"
   xmlns="http://www.w3.org/2000/svg"
   xmlns:svg="http://www.w3.org/2000/svg"><sodipodi:namedview
     id="namedview1"
     pagecolor="#ffffff"
     bordercolor="#666666"
     borderopacity="1.0"
     inkscape:showpageshadow="2"
     inkscape:pageopacity="0.0"
     inkscape:pagecheckerboard="0"
     inkscape:deskcolor="#d1d1d1"
     inkscape:document-units="mm"
     inkscape:zoom="5.3594789"
     inkscape:cx="111.01826"
     inkscape:cy="804.36925"
     inkscape:current-layer="layer1"
     inkscape:export-bgcolor="#00000000"><inkscape:page
       x="0"
       y="0"
       width="12.390124"
       height="12.390119"
       id="page2"
       margin="0"
       bleed="0" /></sodipodi:namedview><defs
     id="defs1"><linearGradient
       id="linearGradient25"
       inkscape:collect="always"><stop
         style="stop-color:#008dff;stop-opacity:1;"
         offset="0"
         id="stop25" /><stop
         style="stop-color:#ff8dff;stop-opacity:1;"
         offset="1"
         id="stop26" /></linearGradient><linearGradient
       id="linearGradient23"
       inkscape:collect="always"><stop
         style="stop-color:#0090ff;stop-opacity:1;"
         offset="0"
         id="stop23" /><stop
         style="stop-color:#c78dff;stop-opacity:1;"
         offset="1"
         id="stop24" /></linearGradient><linearGradient
       id="linearGradient21"
       inkscape:collect="always"><stop
         style="stop-color:#008dff;stop-opacity:1;"
         offset="0"
         id="stop21" /><stop
         style="stop-color:#ff8dff;stop-opacity:1;"
         offset="1"
         id="stop22" /></linearGradient><linearGradient
       id="linearGradient19"
       inkscape:collect="always"><stop
         style="stop-color:#0073ff;stop-opacity:1;"
         offset="0"
         id="stop19" /><stop
         style="stop-color:#ff60c1;stop-opacity:0.99752706;"
         offset="1"
         id="stop20" /></linearGradient><linearGradient
       inkscape:collect="always"
       xlink:href="#linearGradient19"
       id="linearGradient1"
       gradientUnits="userSpaceOnUse"
       gradientTransform="matrix(0.17923745,0,0,0.20916048,12.189851,127.70599)"
       x1="44.624283"
       y1="283.65918"
       x2="44.624283"
       y2="222.52896" /><linearGradient
       inkscape:collect="always"
       xlink:href="#linearGradient21"
       id="linearGradient3"
       gradientUnits="userSpaceOnUse"
       gradientTransform="matrix(0.18295574,-0.04102977,0.04102977,0.18295574,2.463791,136.66847)"
       x1="46.340473"
       y1="236.59558"
       x2="46.340473"
       y2="230.33023" /><linearGradient
       inkscape:collect="always"
       xlink:href="#linearGradient23"
       id="linearGradient4"
       gradientUnits="userSpaceOnUse"
       gradientTransform="matrix(-0.18749999,0,0,0.18749999,28.128131,133.70622)"
       x1="43.455971"
       y1="231.71747"
       x2="43.455971"
       y2="219.68311" /><linearGradient
       inkscape:collect="always"
       xlink:href="#linearGradient25"
       id="linearGradient5"
       gradientUnits="userSpaceOnUse"
       gradientTransform="matrix(-0.1873423,0,0,0.21487128,27.603251,127.7149)"
       x1="42.074001"
       y1="230.31345"
       x2="42.074001"
       y2="196.59369" /></defs><g
     inkscape:label="Layer 1"
     inkscape:groupmode="layer"
     id="layer1"
     transform="translate(-13.845309,-172.13152)"><rect
       style="font-variation-settings:'opsz' 32, 'wght' 700;fill:#000000;fill-opacity:0;stroke:none;stroke-width:0.309876;stroke-linecap:round;stroke-linejoin:round;stroke-dasharray:none;stroke-opacity:1;paint-order:stroke fill markers"
       id="rect13-0"
       width="12.390124"
       height="12.390124"
       x="13.845308"
       y="172.13152"
       ry="1.1635891"
       inkscape:export-filename="MtSync App Indicator Icon 1.png"
       inkscape:export-xdpi="96"
       inkscape:export-ydpi="96" /><path
       id="rect15-9"
       style="font-variation-settings:'opsz' 32, 'wght' 700;fill:url(#linearGradient1);stroke:none;stroke-width:0.494;stroke-linecap:round;stroke-linejoin:round;stroke-dasharray:none;stroke-opacity:1;paint-order:stroke fill markers"
       d="m 19.357311,177.98041 0.68023,0.65256 0.59306,-0.007 2.65409,2.67349 2.65131,2.38777 -11.79125,0.0423 z"
       sodipodi:nodetypes="ccccccc" /><path
       id="rect20-3"
       style="font-variation-settings:'opsz' 32, 'wght' 700;fill:#fffffe;fill-opacity:1;stroke-width:0.193624;stroke-linecap:round;stroke-linejoin:round;paint-order:stroke fill markers"
       d="m 19.371971,178.32111 0.6149,0.59725 0.63104,0.004 1.72229,1.79254 -0.24783,-0.13809 -0.35566,-0.18649 -0.18968,0.33738 -0.188,-0.14144 -0.0293,-0.10591 -0.0981,0.16126 -0.1359,-0.31229 0.007,0.4292 -0.21732,-0.081 -0.15839,-0.19846 -0.0851,0.30889 -0.0703,-0.55232 -0.1821,0.51059 -0.30161,-0.5063 0.1004,0.56098 -0.45332,-1.05479 0.0224,0.54751 -0.008,0.52866 -0.19469,-0.37482 -0.29889,0.54584 -0.13291,-0.63013 -0.12967,0.39003 -0.0467,-0.57843 -0.44312,0.6417 -0.26378,-0.2707 -0.32803,0.49443 -0.008,-0.66771 -0.4008,0.42706 0.12372,-0.39476 -0.30799,0.34394 0.2473,-0.46675 z"
       sodipodi:nodetypes="cccccccccccccccccccccccccccccccccccc" /><path
       id="rect5-60"
       style="font-variation-settings:'opsz' 32, 'wght' 700;fill:#ffffff;fill-opacity:1;stroke-width:0.0764869;stroke-linecap:round;stroke-linejoin:round;paint-order:stroke fill markers"
       d="m 19.554221,182.74542 -0.39489,-1.01574 -0.12937,-0.68949 0.17136,0.31675 z"
       sodipodi:nodetypes="ccccc" /><path
       id="rect6-1"
       style="font-variation-settings:'opsz' 32, 'wght' 700;fill:#ffffff;fill-opacity:1;stroke-width:0.0984536;stroke-linecap:round;stroke-linejoin:round;paint-order:stroke fill markers"
       d="m 18.877001,181.12911 -0.32769,0.53325 0.17905,-0.80739 -0.51091,1.65639 0.23847,-0.42704 z"
       sodipodi:nodetypes="cccccc" /><path
       id="rect7-8"
       style="font-variation-settings:'opsz' 32, 'wght' 700;fill:#ffffff;fill-opacity:1;stroke-width:0.0894007;stroke-linecap:round;stroke-linejoin:round;paint-order:stroke fill markers"
       d="m 17.057741,181.45571 0.77452,-0.65441 -0.57711,0.69213 -0.56001,1.0716 z"
       sodipodi:nodetypes="ccccc" /><path
       id="rect8-7"
       style="font-variation-settings:'opsz' 32, 'wght' 700;fill:#ffffff;fill-opacity:1;stroke-width:0.0699787;stroke-linecap:round;stroke-linejoin:round;paint-order:stroke fill markers"
       d="m 21.608331,180.84129 0.23244,0.3546 0.50949,0.92666 -0.41231,-0.6078 0.1235,0.71738 z"
       sodipodi:nodetypes="cccccc" /><path
       id="path8-3-9"
       style="font-variation-settings:'opsz' 32, 'wght' 700;fill:#ffffff;fill-opacity:1;stroke:url(#linearGradient3);stroke-width:0.275;stroke-linecap:round;stroke-linejoin:round;stroke-dasharray:none;paint-order:stroke fill markers"
       d="m 20.617661,177.12333 a 0.32737861,0.37735137 77.359946 0 0 -0.28816,0.24555 0.20192804,0.23275141 77.359946 0 0 -0.16217,-0.016 0.20192804,0.23275141 77.359946 0 0 -0.1829,0.24796 0.20192804,0.23275141 77.359946 0 0 0.27127,0.14611 0.20192804,0.23275141 77.359946 0 0 0.13981,-0.0837 0.32737861,0.37735137 77.359946 0 0 0.36543,0.099 0.32737861,0.37735137 77.359946 0 0 0.29659,-0.402 0.32737861,0.37735137 77.359946 0 0 -0.43987,-0.23688 z" /><path
       id="path9-2"
       style="font-variation-settings:'opsz' 32, 'wght' 700;fill:#ffffff;fill-opacity:1;stroke:url(#linearGradient4);stroke-width:0.375;stroke-linecap:round;stroke-linejoin:round;stroke-dasharray:none;paint-order:stroke fill markers"
       d="m 20.540621,175.38971 a 0.53022778,0.47057715 0 0 1 0.53023,0.47057 0.53022778,0.47057715 0 0 1 -0.53023,0.47058 0.53022778,0.47057715 0 0 1 -0.32176,-0.0965 0.5219385,0.57616404 0 0 1 -0.50387,0.426 0.5219385,0.57616404 0 0 1 -0.42542,-0.2442 0.24523036,0.42934799 0 0 1 -0.15493,0.0973 0.24523036,0.42934799 0 0 1 -0.24523,-0.42931 0.24523036,0.42934799 0 0 1 0.24523,-0.42936 0.24523036,0.42934799 0 0 1 0.15493,0.0974 0.5219385,0.57616404 0 0 1 0.42542,-0.2442 0.5219385,0.57616404 0 0 1 0.34843,0.14721 0.53022778,0.47057715 0 0 1 0.4772,-0.26547 z" /><path
       id="path11-0"
       style="font-variation-settings:'opsz' 32, 'wght' 700;fill:#ffffff;fill-opacity:1;stroke:url(#linearGradient5);stroke-width:0.48;stroke-linecap:round;stroke-linejoin:round;stroke-dasharray:none;paint-order:stroke fill markers"
       d="m 17.557411,174.72765 a 0.52391496,0.56982028 0 0 1 -0.40451,-0.20769 0.40648576,0.38333372 0 0 1 -0.1465,0.0258 0.40648576,0.38333372 0 0 1 -0.40649,-0.38334 0.40648576,0.38333372 0 0 1 0.40649,-0.38333 0.40648576,0.38333372 0 0 1 0.14114,0.0238 0.52391496,0.56982028 0 0 1 0.40987,-0.2149 0.52391496,0.56982028 0 0 1 0.29865,0.10166 0.72264131,0.75112685 0 0 1 0.66788,-0.46428 0.72264131,0.75112685 0 0 1 0.41693,0.13764 0.18517685,0.32635167 0 0 1 0.17474,-0.21821 0.18517685,0.32635167 0 0 1 0.15634,0.15148 1.2430357,1.0682604 0 0 1 1.17052,-0.70868 1.2430357,1.0682604 0 0 1 0.55581,0.11276 0.39293622,0.35743279 0 0 1 0.38048,-0.26816 0.39293622,0.35743279 0 0 1 0.39245,0.33951 0.73167434,0.42363374 0 0 1 0.33923,-0.0483 0.73167434,0.42363374 0 0 1 0.73167,0.42364 0.73167434,0.42363374 0 0 1 -0.2128,0.29866 0.52856591,0.33960858 0 0 1 0.11333,0.21013 0.52856591,0.33960858 0 0 1 -0.52857,0.33962 0.52856591,0.33960858 0 0 1 -0.52857,-0.33962 0.52856591,0.33960858 0 0 1 0.0505,-0.14485 0.73167434,0.42363374 0 0 1 -0.0665,-0.0259 1.2430357,1.0682604 0 0 1 0.016,0.17071 1.2430357,1.0682604 0 0 1 -1.24303,1.06825 1.2430357,1.0682604 0 0 1 -0.74339,-0.21206 0.43358479,0.40405444 0 0 1 -0.2086,0.0498 0.43358479,0.40405444 0 0 1 -0.35939,-0.17799 0.72264131,0.75112685 0 0 1 -0.60715,0.34376 0.72264131,0.75112685 0 0 1 -0.53517,-0.24638 0.52391496,0.56982028 0 0 1 -0.43136,0.24638 z" /><path
       id="rect26-2"
       style="font-variation-settings:'opsz' 32, 'wght' 700;fill:#fffffe;fill-opacity:1;stroke-width:0.0434299;stroke-linecap:round;stroke-linejoin:round;paint-order:stroke fill markers"
       d="m 20.639791,181.63099 -0.1669,-0.79464 0.3622,1.0889 0.0357,1.08371 z"
       sodipodi:nodetypes="ccccc" /></g></svg>
