<?xml version="1.0" encoding="UTF-8" standalone="no"?>
<!-- Created with Inkscape (http://www.inkscape.org/) -->

<svg
   width="57.534409mm"
   height="65.467384mm"
   viewBox="0 0 57.534409 65.467384"
   version="1.1"
   id="svg1"
   xml:space="preserve"
   inkscape:version="1.4.3 (0d15f75042, 2025-12-25)"
   sodipodi:docname="Saddle App Icons Main.svg"
   xmlns:inkscape="http://www.inkscape.org/namespaces/inkscape"
   xmlns:sodipodi="http://sodipodi.sourceforge.net/DTD/sodipodi-0.dtd"
   xmlns="http://www.w3.org/2000/svg"
   xmlns:svg="http://www.w3.org/2000/svg"><sodipodi:namedview
     id="namedview1"
     pagecolor="#ffffff"
     bordercolor="#666666"
     borderopacity="1.0"
     inkscape:showpageshadow="2"
     inkscape:pageopacity="0.0"
     inkscape:pagecheckerboard="0"
     inkscape:deskcolor="#d1d1d1"
     inkscape:document-units="mm"
     inkscape:zoom="5.6568542"
     inkscape:cx="-33.145631"
     inkscape:cy="610.05638"
     inkscape:current-layer="layer1"
     inkscape:export-bgcolor="#00000000"><inkscape:page
       x="0"
       y="0"
       width="57.534409"
       height="65.467384"
       id="page2"
       margin="0"
       bleed="0" /></sodipodi:namedview><defs
     id="defs1" /><g
     inkscape:label="Layer 1"
     inkscape:groupmode="layer"
     id="layer1"
     transform="translate(-97.631247,-190.50001)"><g
       id="g9"><path
         id="rect1-6-3"
         d="m 118.73817,212.42635 36.39233,-1.81295 -0.0119,25.16644 c -0.002,3.97548 -3.22276,7.19824 -7.19824,7.19824 h -21.85195 c -5.6287,0 -10.19166,-4.56296 -10.19165,-10.19166 z"
         style="font-variation-settings:'opsz' 32, 'wght' 700;fill:#ffffff;fill-opacity:1;stroke:none;stroke-width:0.0884798;stroke-linecap:round;paint-order:stroke fill markers"
         sodipodi:nodetypes="ccssssc" /><path
         id="rect2-6-1"
         d="m 97.635649,199.10609 h 50.116611 c 4.0943,0 7.41339,3.31909 7.41339,7.41339 v 1.56685 c 0,5.24382 -4.25096,9.49477 -9.49477,9.49477 0,0 -8.11434,0.0118 -12.39483,0 -6.42299,0.0204 -10.69226,-5.13785 -11.72349,-4.92811 2.00867,1.69449 -14.0815,0.73549 -15.44463,-0.0254 -5.84068,-2.38144 -8.408641,-3.26671 -8.472281,-13.522 z"
         style="font-variation-settings:'opsz' 32, 'wght' 700;fill:#ffffff;fill-opacity:1;stroke:none;stroke-width:0.0968208;stroke-linecap:round;paint-order:stroke fill markers"
         sodipodi:nodetypes="cssssccccc" /><path
         id="rect4-2-0"
         style="font-variation-settings:'opsz' 32, 'wght' 700;fill:#ffffff;fill-opacity:1;stroke-width:0.112473;stroke-linecap:round;paint-order:stroke fill markers"
         d="m 101.08372,190.5 c 3.82534,4.31775 6.28553,8.5853 22.01938,9.16737 H 97.631249 v -6.43225 c 0.704433,-2.44666 2.148731,-2.59258 3.452471,-2.7351 z"
         sodipodi:nodetypes="cccccc" /><rect
         style="font-variation-settings:'opsz' 32, 'wght' 700;fill:#000000;fill-opacity:1;stroke-width:0.0934322;stroke-linecap:round;paint-order:stroke fill markers"
         id="rect5-6-6"
         width="3.3208239"
         height="25.391747"
         x="138.23389"
         y="217.58633" /><path
         id="rect7-18-3"
         style="font-variation-settings:'opsz' 32, 'wght' 700;fill:#ffffff;fill-opacity:1;stroke-width:0.10678;stroke-linecap:round;stroke-linejoin:round;paint-order:stroke fill markers"
         d="m 151.82722,212.43968 2.18088,-3.19597 c -0.10749,-0.78824 1.14025,-4.79156 1.15755,-0.12403 0,8.71688 -2.89704,8.46666 -21.8896,8.46142 -5.32032,-0.001 -10.95542,-3.00522 -15.14591,-5.22491 z"
         sodipodi:nodetypes="cccscc" /><rect
         style="font-variation-settings:'opsz' 32, 'wght' 700;fill:none;fill-opacity:1;stroke:#ffffff;stroke-width:2.7691;stroke-linecap:round;stroke-linejoin:round;stroke-dasharray:none;stroke-opacity:1;paint-order:stroke fill markers"
         id="rect6-7-2"
         width="10.909649"
         height="10.216578"
         x="134.43947"
         y="244.36626"
         ry="3.1622734" /></g></g></svg>
