<?xml version="1.0" encoding="UTF-8" standalone="no"?>
<!-- Created with Inkscape (http://www.inkscape.org/) -->

<svg
   width="67.733337mm"
   height="67.733337mm"
   viewBox="0 0 67.733337 67.733337"
   version="1.1"
   id="svg1"
   xml:space="preserve"
   inkscape:version="1.4.3 (0d15f75042, 2025-12-25)"
   sodipodi:docname="Saddle App Icons Main.svg"
   xmlns:inkscape="http://www.inkscape.org/namespaces/inkscape"
   xmlns:sodipodi="http://sodipodi.sourceforge.net/DTD/sodipodi-0.dtd"
   xmlns:xlink="http://www.w3.org/1999/xlink"
   xmlns="http://www.w3.org/2000/svg"
   xmlns:svg="http://www.w3.org/2000/svg"><sodipodi:namedview
     id="namedview1"
     pagecolor="#ffffff"
     bordercolor="#666666"
     borderopacity="1.0"
     inkscape:showpageshadow="2"
     inkscape:pageopacity="0.0"
     inkscape:pagecheckerboard="0"
     inkscape:deskcolor="#d1d1d1"
     inkscape:document-units="mm"
     inkscape:zoom="5.3594789"
     inkscape:cx="111.01826"
     inkscape:cy="804.36925"
     inkscape:current-layer="layer1"
     inkscape:export-bgcolor="#00000000"><inkscape:page
       x="-5.815774e-21"
       y="-2.6574738e-19"
       width="67.733337"
       height="67.733337"
       id="page2"
       margin="0"
       bleed="0" /></sodipodi:namedview><defs
     id="defs1"><linearGradient
       id="linearGradient25"
       inkscape:collect="always"><stop
         style="stop-color:#008dff;stop-opacity:1;"
         offset="0"
         id="stop25" /><stop
         style="stop-color:#ff8dff;stop-opacity:1;"
         offset="1"
         id="stop26" /></linearGradient><linearGradient
       id="linearGradient23"
       inkscape:collect="always"><stop
         style="stop-color:#0090ff;stop-opacity:1;"
         offset="0"
         id="stop23" /><stop
         style="stop-color:#c78dff;stop-opacity:1;"
         offset="1"
         id="stop24" /></linearGradient><linearGradient
       id="linearGradient21"
       inkscape:collect="always"><stop
         style="stop-color:#008dff;stop-opacity:1;"
         offset="0"
         id="stop21" /><stop
         style="stop-color:#ff8dff;stop-opacity:1;"
         offset="1"
         id="stop22" /></linearGradient><linearGradient
       id="linearGradient19"
       inkscape:collect="always"><stop
         style="stop-color:#0073ff;stop-opacity:1;"
         offset="0"
         id="stop19" /><stop
         style="stop-color:#ff60c1;stop-opacity:0.99752706;"
         offset="1"
         id="stop20" /></linearGradient><linearGradient
       inkscape:collect="always"
       xlink:href="#linearGradient19"
       id="linearGradient20"
       x1="44.624283"
       y1="283.65918"
       x2="44.624283"
       y2="222.52896"
       gradientUnits="userSpaceOnUse"
       gradientTransform="matrix(0.95593312,0,0,1.1155226,1.9078094,-32.00124)" /><linearGradient
       inkscape:collect="always"
       xlink:href="#linearGradient21"
       id="linearGradient22"
       x1="46.340473"
       y1="236.59558"
       x2="46.340473"
       y2="230.33023"
       gradientUnits="userSpaceOnUse"
       gradientTransform="rotate(-12.640054,46.340474,233.46291)" /><linearGradient
       inkscape:collect="always"
       xlink:href="#linearGradient23"
       id="linearGradient24"
       x1="43.455971"
       y1="231.71747"
       x2="43.455971"
       y2="219.68311"
       gradientUnits="userSpaceOnUse"
       gradientTransform="matrix(-1,0,0,1,86.911949,0)" /><linearGradient
       inkscape:collect="always"
       xlink:href="#linearGradient25"
       id="linearGradient26"
       x1="42.074001"
       y1="230.31345"
       x2="42.074001"
       y2="196.59369"
       gradientUnits="userSpaceOnUse"
       gradientTransform="matrix(-0.99915901,0,0,1.1459802,84.11262,-31.95373)" /></defs><g
     inkscape:label="Layer 1"
     inkscape:groupmode="layer"
     id="layer1"
     transform="translate(-9.9105984,-204.10866)"><rect
       style="font-variation-settings:'opsz' 32, 'wght' 700;fill:#ffffff;fill-opacity:1;stroke:#6191ff;stroke-width:1.65267;stroke-linecap:round;stroke-linejoin:round;stroke-dasharray:none;stroke-opacity:1;paint-order:stroke fill markers"
       id="rect13"
       width="66.080666"
       height="66.080666"
       x="10.736933"
       y="204.93497"
       ry="6.2058086"
       inkscape:export-filename="MtSync App Icon 1.svg"
       inkscape:export-xdpi="96"
       inkscape:export-ydpi="96" /><path
       id="rect15"
       style="font-variation-settings:'opsz' 32, 'wght' 700;fill:url(#linearGradient20);stroke:none;stroke-width:1.03266;stroke-linecap:round;stroke-linejoin:round;stroke-dasharray:none;stroke-opacity:1;paint-order:stroke fill markers"
       d="m 40.134253,236.12901 3.627894,3.48032 3.162972,-0.0355 14.155155,14.25861 14.140328,12.73479 -62.886673,0.22546 z"
       sodipodi:nodetypes="ccccccc" /><path
       id="rect20"
       style="font-variation-settings:'opsz' 32, 'wght' 700;fill:#fffffe;fill-opacity:1;stroke-width:1.03266;stroke-linecap:round;stroke-linejoin:round;paint-order:stroke fill markers"
       d="m 40.212439,237.30905 3.27945,3.18534 3.36555,0.0211 9.185569,9.5602 -1.321761,-0.73648 -1.89685,-0.9946 -1.011637,1.79932 -1.002652,-0.75431 -0.15609,-0.56486 -0.523444,0.86007 -0.724782,-1.66555 0.03689,2.28904 -1.159022,-0.43178 -0.844758,-1.05847 -0.454007,1.64744 -0.374917,-2.94571 -0.971191,2.72312 -1.608601,-2.70023 0.535449,2.99189 -2.417685,-5.62558 0.119398,2.92008 -0.04422,2.81949 -1.038331,-1.99904 -1.594094,2.91119 -0.708857,-3.36071 -0.691574,2.08014 -0.248974,-3.08496 -2.36328,3.42242 -1.406852,-1.44372 -1.749454,2.63696 -0.04222,-3.56116 -2.137601,2.27767 0.659815,-2.10536 -1.642568,1.83431 1.318916,-2.48931 z"
       sodipodi:nodetypes="cccccccccccccccccccccccccccccccccccc" /><path
       id="rect5"
       style="font-variation-settings:'opsz' 32, 'wght' 700;fill:#ffffff;fill-opacity:1;stroke-width:0.40793;stroke-linecap:round;stroke-linejoin:round;paint-order:stroke fill markers"
       d="m 41.184457,260.90538 -2.106098,-5.41728 -0.68997,-3.67725 0.913914,1.68934 z"
       sodipodi:nodetypes="ccccc" /><rect
       style="font-variation-settings:'opsz' 32, 'wght' 700;fill:#6191ff;fill-opacity:1;stroke-width:2.2367;stroke-linecap:round;stroke-linejoin:round;paint-order:stroke fill markers"
       id="rect4"
       width="63.006134"
       height="8.104105"
       x="12.274196"
       y="263.4407"
       ry="4.0520525" /><text
       xml:space="preserve"
       style="font-size:5.29669px;line-height:1.25;font-family:'Adwaita Sans';-inkscape-font-specification:'Adwaita Sans, @opsz=32,wght=700';font-variant-ligatures:none;font-variation-settings:'opsz' 32, 'wght' 700;text-align:center;letter-spacing:0px;word-spacing:0px;text-anchor:middle;fill:#ffffff;fill-opacity:1;stroke:none;stroke-width:3.27742;stroke-opacity:1"
       x="43.519016"
       y="268.79202"
       id="text4"
       transform="scale(0.99769599,1.0023093)"><tspan
         sodipodi:role="line"
         id="tspan4"
         style="fill:#ffffff;fill-opacity:1;stroke:none;stroke-width:3.27742;stroke-opacity:1"
         x="43.519016"
         y="268.79202">Mt Sync</tspan></text><path
       id="rect6"
       style="font-variation-settings:'opsz' 32, 'wght' 700;fill:#ffffff;fill-opacity:1;stroke-width:0.525086;stroke-linecap:round;stroke-linejoin:round;paint-order:stroke fill markers"
       d="m 37.572623,252.28505 -1.747717,2.84403 0.954975,-4.30608 -2.724848,8.83409 1.271838,-2.27758 z"
       sodipodi:nodetypes="cccccc" /><path
       id="rect7"
       style="font-variation-settings:'opsz' 32, 'wght' 700;fill:#ffffff;fill-opacity:1;stroke-width:0.476804;stroke-linecap:round;stroke-linejoin:round;paint-order:stroke fill markers"
       d="m 27.8699,254.02695 4.130755,-3.4902 -3.077924,3.69138 -2.98673,5.71521 z"
       sodipodi:nodetypes="ccccc" /><path
       id="rect8"
       style="font-variation-settings:'opsz' 32, 'wght' 700;fill:#ffffff;fill-opacity:1;stroke-width:0.37322;stroke-linecap:round;stroke-linejoin:round;paint-order:stroke fill markers"
       d="m 52.139713,250.75006 1.239645,1.89118 2.71728,4.94217 -2.198969,-3.24159 0.658658,3.82603 z"
       sodipodi:nodetypes="cccccc" /><path
       id="path8-3"
       style="font-variation-settings:'opsz' 32, 'wght' 700;fill:none;fill-opacity:1;stroke:url(#linearGradient22);stroke-width:0.6;stroke-linecap:round;stroke-linejoin:round;stroke-dasharray:none;paint-order:stroke fill markers"
       d="m 46.856152,231.55791 a 1.7460193,2.0125407 77.359946 0 0 -1.536873,1.30963 1.0769496,1.2413409 77.359946 0 0 -0.864904,-0.0853 1.0769496,1.2413409 77.359946 0 0 -0.975488,1.32247 1.0769496,1.2413409 77.359946 0 0 1.446816,0.77923 1.0769496,1.2413409 77.359946 0 0 0.745651,-0.44647 1.7460193,2.0125407 77.359946 0 0 1.94893,0.52777 1.7460193,2.0125407 77.359946 0 0 1.58181,-2.14402 1.7460193,2.0125407 77.359946 0 0 -2.345942,-1.26332 z" /><path
       id="path9"
       style="font-variation-settings:'opsz' 32, 'wght' 700;fill:none;fill-opacity:1;stroke:url(#linearGradient24);stroke-width:0.7;stroke-linecap:round;stroke-linejoin:round;stroke-dasharray:none;paint-order:stroke fill markers"
       d="m 46.445272,222.31194 a 2.8278816,2.5097449 0 0 1 2.827882,2.50975 2.8278816,2.5097449 0 0 1 -2.827882,2.50974 2.8278816,2.5097449 0 0 1 -1.71606,-0.51476 2.7836721,3.072875 0 0 1 -2.687316,2.27197 2.7836721,3.072875 0 0 1 -2.268933,-1.30237 1.3078953,2.289856 0 0 1 -0.826272,0.51918 1.3078953,2.289856 0 0 1 -1.307896,-2.28965 1.3078953,2.289856 0 0 1 1.307896,-2.28992 1.3078953,2.289856 0 0 1 0.826272,0.51918 2.7836721,3.072875 0 0 1 2.268933,-1.30237 2.7836721,3.072875 0 0 1 1.858283,0.78513 2.8278816,2.5097449 0 0 1 2.545093,-1.41588 z" /><path
       id="path11"
       style="font-variation-settings:'opsz' 32, 'wght' 700;fill:none;fill-opacity:1;stroke:url(#linearGradient26);stroke-width:0.828;stroke-linecap:round;stroke-linejoin:round;stroke-dasharray:none;paint-order:stroke fill markers"
       d="m 30.534792,218.78096 a 2.7942132,3.0390416 0 0 1 -2.157384,-1.10769 2.1679241,2.0444466 0 0 1 -0.781358,0.13749 2.1679241,2.0444466 0 0 1 -2.167921,-2.04445 2.1679241,2.0444466 0 0 1 2.167921,-2.04444 2.1679241,2.0444466 0 0 1 0.752753,0.12713 2.7942132,3.0390416 0 0 1 2.185989,-1.14611 2.7942132,3.0390416 0 0 1 1.59282,0.54218 3.8540871,4.00601 0 0 1 3.562023,-2.47613 3.8540871,4.00601 0 0 1 2.223627,0.73408 0.98760989,1.7405423 0 0 1 0.931905,-1.16381 0.98760989,1.7405423 0 0 1 0.833862,0.80789 6.6295238,5.6973892 0 0 1 6.242755,-3.7796 6.6295238,5.6973892 0 0 1 2.964334,0.60134 2.0956599,1.9063083 0 0 1 2.02923,-1.43017 2.0956599,1.9063083 0 0 1 2.093027,1.8107 3.9022633,2.25938 0 0 1 1.809237,-0.25749 3.9022633,2.25938 0 0 1 3.902263,2.25941 3.9022633,2.25938 0 0 1 -1.134961,1.5929 2.8190183,1.8112458 0 0 1 0.60446,1.12065 2.8190183,1.8112458 0 0 1 -2.819054,1.81135 2.8190183,1.8112458 0 0 1 -2.819054,-1.81135 2.8190183,1.8112458 0 0 1 0.269297,-0.7725 3.9022633,2.25938 0 0 1 -0.354546,-0.13791 6.6295238,5.6973892 0 0 1 0.08525,0.91041 6.6295238,5.6973892 0 0 1 -6.629482,5.69735 6.6295238,5.6973892 0 0 1 -3.964742,-1.131 2.3124523,2.1549571 0 0 1 -1.112566,0.26569 2.3124523,2.1549571 0 0 1 -1.916695,-0.94927 3.8540871,4.00601 0 0 1 -3.238146,1.83335 3.8540871,4.00601 0 0 1 -2.854244,-1.31404 2.7942132,3.0390416 0 0 1 -2.300598,1.31404 z" /><path
       id="rect26"
       style="font-variation-settings:'opsz' 32, 'wght' 700;fill:#fffffe;fill-opacity:1;stroke-width:0.231626;stroke-linecap:round;stroke-linejoin:round;paint-order:stroke fill markers"
       d="m 46.97413,254.96175 -0.89012,-4.23804 1.931765,5.80745 0.190356,5.77979 z"
       sodipodi:nodetypes="ccccc" /></g></svg>
