<?xml version="1.0" encoding="UTF-8" standalone="no"?>
<!-- Created with Inkscape (http://www.inkscape.org/) -->

<svg
   width="67.733322mm"
   height="67.733337mm"
   viewBox="0 0 67.733322 67.733337"
   version="1.1"
   id="svg1"
   xml:space="preserve"
   inkscape:version="1.4.3 (0d15f75042, 2025-12-25)"
   sodipodi:docname="Saddle App Icons Main.svg"
   xmlns:inkscape="http://www.inkscape.org/namespaces/inkscape"
   xmlns:sodipodi="http://sodipodi.sourceforge.net/DTD/sodipodi-0.dtd"
   xmlns:xlink="http://www.w3.org/1999/xlink"
   xmlns="http://www.w3.org/2000/svg"
   xmlns:svg="http://www.w3.org/2000/svg"><sodipodi:namedview
     id="namedview1"
     pagecolor="#ffffff"
     bordercolor="#666666"
     borderopacity="1.0"
     inkscape:showpageshadow="2"
     inkscape:pageopacity="0.0"
     inkscape:pagecheckerboard="0"
     inkscape:deskcolor="#d1d1d1"
     inkscape:document-units="mm"
     inkscape:zoom="1.2694341"
     inkscape:cx="372.2131"
     inkscape:cy="604.99399"
     inkscape:current-layer="layer1"
     inkscape:export-bgcolor="#00000000"><inkscape:page
       x="0"
       y="-1.7269165e-19"
       width="67.733322"
       height="67.733337"
       id="page2"
       margin="0"
       bleed="0" /></sodipodi:namedview><defs
     id="defs1"><linearGradient
       id="linearGradient25"
       inkscape:collect="always"><stop
         style="stop-color:#008dff;stop-opacity:1;"
         offset="0"
         id="stop25" /><stop
         style="stop-color:#ff8dff;stop-opacity:1;"
         offset="1"
         id="stop26" /></linearGradient><linearGradient
       id="linearGradient23"
       inkscape:collect="always"><stop
         style="stop-color:#0090ff;stop-opacity:1;"
         offset="0"
         id="stop23" /><stop
         style="stop-color:#c78dff;stop-opacity:1;"
         offset="1"
         id="stop24" /></linearGradient><linearGradient
       id="linearGradient21"
       inkscape:collect="always"><stop
         style="stop-color:#008dff;stop-opacity:1;"
         offset="0"
         id="stop21" /><stop
         style="stop-color:#ff8dff;stop-opacity:1;"
         offset="1"
         id="stop22" /></linearGradient><linearGradient
       id="linearGradient19"
       inkscape:collect="always"><stop
         style="stop-color:#0073ff;stop-opacity:1;"
         offset="0"
         id="stop19" /><stop
         style="stop-color:#ff60c1;stop-opacity:0.99752706;"
         offset="1"
         id="stop20" /></linearGradient><linearGradient
       inkscape:collect="always"
       xlink:href="#linearGradient19"
       id="linearGradient6"
       gradientUnits="userSpaceOnUse"
       gradientTransform="matrix(0.97984091,0,0,1.1343378,95.230196,-108.29583)"
       x1="44.624283"
       y1="283.65918"
       x2="44.624283"
       y2="222.52896" /><linearGradient
       inkscape:collect="always"
       xlink:href="#linearGradient21"
       id="linearGradient7"
       gradientUnits="userSpaceOnUse"
       gradientTransform="matrix(1.0001678,-0.22251629,0.22429823,0.99222195,42.060548,-59.689687)"
       x1="46.340473"
       y1="236.59558"
       x2="46.340473"
       y2="230.33023" /><linearGradient
       inkscape:collect="always"
       xlink:href="#linearGradient23"
       id="linearGradient8"
       gradientUnits="userSpaceOnUse"
       gradientTransform="matrix(-1.0250099,0,0,1.0168667,182.36028,-75.754835)"
       x1="43.455971"
       y1="231.71747"
       x2="43.455971"
       y2="219.68311" /><linearGradient
       inkscape:collect="always"
       xlink:href="#linearGradient25"
       id="linearGradient9"
       gradientUnits="userSpaceOnUse"
       gradientTransform="matrix(-1.0241479,0,0,1.1653091,179.49094,-108.24752)"
       x1="42.074001"
       y1="230.31345"
       x2="42.074001"
       y2="196.59369" /></defs><g
     inkscape:label="Layer 1"
     inkscape:groupmode="layer"
     id="layer1"
     transform="translate(-104.28012,-132.63673)"><rect
       style="font-variation-settings:'opsz' 32, 'wght' 700;fill:none;fill-opacity:0;stroke:none;stroke-width:1.68726;stroke-linecap:round;stroke-linejoin:round;stroke-dasharray:none;stroke-opacity:1;paint-order:stroke fill markers"
       id="rect13-09"
       width="67.73333"
       height="67.195229"
       x="104.28013"
       y="132.63672"
       ry="6.3104806"
       inkscape:export-filename="MtSync App Icon 1.svg"
       inkscape:export-xdpi="96"
       inkscape:export-ydpi="96" /><path
       id="rect15-3"
       style="font-variation-settings:'opsz' 32, 'wght' 700;fill:url(#linearGradient6);stroke:none;stroke-width:1.05427;stroke-linecap:round;stroke-linejoin:round;stroke-dasharray:none;stroke-opacity:1;paint-order:stroke fill markers"
       d="m 134.41267,164.35689 3.71863,3.53902 3.24207,-0.0361 14.50918,14.49911 14.49398,12.94959 -64.45946,0.22926 z"
       sodipodi:nodetypes="ccccccc" /><path
       id="rect20-6"
       style="font-variation-settings:'opsz' 32, 'wght' 700;fill:#fffffe;fill-opacity:1;stroke-width:1.05427;stroke-linecap:round;stroke-linejoin:round;paint-order:stroke fill markers"
       d="m 134.49281,165.55684 3.36147,3.23906 3.44972,0.0215 9.4153,9.72145 -1.35482,-0.74891 -1.94429,-1.01137 -1.03694,1.82967 -1.02773,-0.76704 -0.15999,-0.57438 -0.53653,0.87457 -0.74291,-1.69364 0.0378,2.32765 -1.18802,-0.43906 -0.86588,-1.07633 -0.46536,1.67523 -0.3843,-2.99539 -0.99548,2.76905 -1.64883,-2.74578 0.54884,3.04236 -2.47815,-5.72047 0.12238,2.96933 -0.0453,2.86705 -1.0643,-2.03276 -1.63396,2.96029 -0.72659,-3.41739 -0.70887,2.11523 -0.2552,-3.137 -2.42239,3.48015 -1.44203,-1.46807 -1.79321,2.68143 -0.0433,-3.62122 -2.19106,2.31608 0.67631,-2.14087 -1.68365,1.86525 1.3519,-2.53129 z"
       sodipodi:nodetypes="cccccccccccccccccccccccccccccccccccc" /><path
       id="rect5-0"
       style="font-variation-settings:'opsz' 32, 'wght' 700;fill:#ffffff;fill-opacity:1;stroke-width:0.416468;stroke-linecap:round;stroke-linejoin:round;paint-order:stroke fill markers"
       d="m 135.48914,189.55116 -2.15878,-5.50865 -0.70722,-3.73928 0.93678,1.71784 z"
       sodipodi:nodetypes="ccccc" /><rect
       style="font-variation-settings:'opsz' 32, 'wght' 700;fill:#6191ff;fill-opacity:1;stroke-width:2.28352;stroke-linecap:round;stroke-linejoin:round;paint-order:stroke fill markers"
       id="rect4-6"
       width="64.581909"
       height="8.2407951"
       x="105.85583"
       y="192.12926"
       ry="4.1203976" /><text
       xml:space="preserve"
       style="font-size:5.40756px;line-height:1.25;font-family:'Adwaita Sans';-inkscape-font-specification:'Adwaita Sans, @opsz=32,wght=700';font-variant-ligatures:none;font-variation-settings:'opsz' 32, 'wght' 700;text-align:center;letter-spacing:0px;word-spacing:0px;text-anchor:middle;fill:#ffffff;fill-opacity:1;stroke:none;stroke-width:3.34602;stroke-opacity:1"
       x="137.54784"
       y="198.53555"
       id="text4-2"
       transform="scale(1.0016829,0.99831997)"><tspan
         sodipodi:role="line"
         id="tspan4-6"
         style="fill:#ffffff;fill-opacity:1;stroke:none;stroke-width:3.34602;stroke-opacity:1"
         x="137.54784"
         y="198.53555">Mt Sync</tspan></text><path
       id="rect6-18"
       style="font-variation-settings:'opsz' 32, 'wght' 700;fill:#ffffff;fill-opacity:1;stroke-width:0.536076;stroke-linecap:round;stroke-linejoin:round;paint-order:stroke fill markers"
       d="m 131.78698,180.78543 -1.79143,2.892 0.97886,-4.37871 -2.793,8.98309 1.30365,-2.31599 z"
       sodipodi:nodetypes="cccccc" /><path
       id="rect7-7"
       style="font-variation-settings:'opsz' 32, 'wght' 700;fill:#ffffff;fill-opacity:1;stroke-width:0.486784;stroke-linecap:round;stroke-linejoin:round;paint-order:stroke fill markers"
       d="m 121.84158,182.55671 4.23407,-3.54907 -3.1549,3.75364 -3.06142,5.81161 z"
       sodipodi:nodetypes="ccccc" /><path
       id="rect8-9"
       style="font-variation-settings:'opsz' 32, 'wght' 700;fill:#ffffff;fill-opacity:1;stroke-width:0.381031;stroke-linecap:round;stroke-linejoin:round;paint-order:stroke fill markers"
       d="m 146.71839,179.22455 1.27064,1.92308 2.78524,5.02553 -2.25397,-3.29627 0.67514,3.89057 z"
       sodipodi:nodetypes="cccccc" /><path
       id="path8-3-2"
       style="font-variation-settings:'opsz' 32, 'wght' 700;fill:#ffffff;fill-opacity:1;stroke:url(#linearGradient7);stroke-width:0.612558;stroke-linecap:round;stroke-linejoin:round;stroke-dasharray:none;paint-order:stroke fill markers"
       d="m 141.30269,159.70869 a 1.7761124,2.0621267 78.018037 0 0 -1.57532,1.33172 1.0955111,1.2719257 78.018037 0 0 -0.88653,-0.0867 1.0955111,1.2719257 78.018037 0 0 -0.99989,1.34478 1.0955111,1.2719257 78.018037 0 0 1.48301,0.79237 1.0955111,1.2719257 78.018037 0 0 0.76429,-0.454 1.7761124,2.0621267 78.018037 0 0 1.99768,0.53667 1.7761124,2.0621267 78.018037 0 0 1.62137,-2.18018 1.7761124,2.0621267 78.018037 0 0 -2.40461,-1.28463 z" /><path
       id="path9-0"
       style="font-variation-settings:'opsz' 32, 'wght' 700;fill:#ffffff;fill-opacity:1;stroke:url(#linearGradient8);stroke-width:0.714651;stroke-linecap:round;stroke-linejoin:round;stroke-dasharray:none;paint-order:stroke fill markers"
       d="m 140.88153,150.30677 a 2.8986065,2.5520761 0 0 1 2.89861,2.55208 2.8986065,2.5520761 0 0 1 -2.89861,2.55208 2.8986065,2.5520761 0 0 1 -1.75898,-0.52345 2.8532913,3.1247044 0 0 1 -2.75453,2.31029 2.8532913,3.1247044 0 0 1 -2.32567,-1.32433 1.3406056,2.3284784 0 0 1 -0.84694,0.52793 1.3406056,2.3284784 0 0 1 -1.34061,-2.32827 1.3406056,2.3284784 0 0 1 1.34061,-2.32854 1.3406056,2.3284784 0 0 1 0.84694,0.52794 2.8532913,3.1247044 0 0 1 2.32567,-1.32434 2.8532913,3.1247044 0 0 1 1.90476,0.79837 2.8986065,2.5520761 0 0 1 2.60875,-1.43976 z" /><path
       id="path11-2"
       style="font-variation-settings:'opsz' 32, 'wght' 700;fill:#ffffff;fill-opacity:1;stroke:url(#linearGradient9);stroke-width:0.84533;stroke-linecap:round;stroke-linejoin:round;stroke-dasharray:none;paint-order:stroke fill markers"
       d="m 124.57313,146.71624 a 2.8640961,3.0903003 0 0 1 -2.21134,-1.12638 2.2221436,2.0789298 0 0 1 -0.80091,0.13981 2.2221436,2.0789298 0 0 1 -2.22214,-2.07893 2.2221436,2.0789298 0 0 1 2.22214,-2.07892 2.2221436,2.0789298 0 0 1 0.77159,0.12927 2.8640961,3.0903003 0 0 1 2.24066,-1.16544 2.8640961,3.0903003 0 0 1 1.63266,0.55132 3.9504773,4.0735783 0 0 1 3.6511,-2.51789 3.9504773,4.0735783 0 0 1 2.27925,0.74646 1.0123099,1.7698996 0 0 1 0.9552,-1.18344 1.0123099,1.7698996 0 0 1 0.85472,0.82152 6.7953272,5.7934856 0 0 1 6.39889,-3.84335 6.7953272,5.7934856 0 0 1 3.03847,0.61148 2.148072,1.9384615 0 0 1 2.07998,-1.45429 2.148072,1.9384615 0 0 1 2.14537,1.84124 3.9998583,2.2974884 0 0 1 1.85449,-0.26183 3.9998583,2.2974884 0 0 1 3.99986,2.29752 3.9998583,2.2974884 0 0 1 -1.16335,1.61976 2.8895215,1.8417956 0 0 1 0.61958,1.13955 2.8895215,1.8417956 0 0 1 -2.88957,1.84191 2.8895215,1.8417956 0 0 1 -2.88955,-1.84191 2.8895215,1.8417956 0 0 1 0.27604,-0.78553 3.9998583,2.2974884 0 0 1 -0.36342,-0.14023 6.7953272,5.7934856 0 0 1 0.0874,0.92576 6.7953272,5.7934856 0 0 1 -6.79528,5.79345 6.7953272,5.7934856 0 0 1 -4.0639,-1.15008 2.3702864,2.1913042 0 0 1 -1.14039,0.27018 2.3702864,2.1913042 0 0 1 -1.96463,-0.96529 3.9504773,4.0735783 0 0 1 -3.31914,1.86428 3.9504773,4.0735783 0 0 1 -2.92562,-1.33621 2.8640961,3.0903003 0 0 1 -2.35814,1.33621 z" /><path
       id="rect26-3"
       style="font-variation-settings:'opsz' 32, 'wght' 700;fill:#fffffe;fill-opacity:1;stroke-width:0.236474;stroke-linecap:round;stroke-linejoin:round;paint-order:stroke fill markers"
       d="m 141.42361,183.50728 -0.91238,-4.30952 1.98008,5.9054 0.19512,5.87728 z"
       sodipodi:nodetypes="ccccc" /></g></svg>
