<?xml version="1.0" encoding="UTF-8" standalone="no"?>
<!-- Created with Inkscape (http://www.inkscape.org/) -->

<svg
   width="65.766121mm"
   height="65.766144mm"
   viewBox="0 0 65.766121 65.766144"
   version="1.1"
   id="svg1"
   xml:space="preserve"
   inkscape:version="1.4.3 (0d15f75042, 2025-12-25)"
   sodipodi:docname="Saddle App Icons Main.svg"
   xmlns:inkscape="http://www.inkscape.org/namespaces/inkscape"
   xmlns:sodipodi="http://sodipodi.sourceforge.net/DTD/sodipodi-0.dtd"
   xmlns="http://www.w3.org/2000/svg"
   xmlns:svg="http://www.w3.org/2000/svg"><sodipodi:namedview
     id="namedview1"
     pagecolor="#ffffff"
     bordercolor="#666666"
     borderopacity="1.0"
     inkscape:showpageshadow="2"
     inkscape:pageopacity="0.0"
     inkscape:pagecheckerboard="0"
     inkscape:deskcolor="#d1d1d1"
     inkscape:document-units="mm"
     inkscape:zoom="16"
     inkscape:cx="391.5625"
     inkscape:cy="528.00001"
     inkscape:current-layer="layer1"
     inkscape:export-bgcolor="#00000000"><inkscape:page
       x="0"
       y="0"
       width="65.766121"
       height="65.766144"
       id="page2"
       margin="0"
       bleed="0" /></sodipodi:namedview><defs
     id="defs1" /><g
     inkscape:label="Layer 1"
     inkscape:groupmode="layer"
     id="layer1"
     transform="translate(-7.5981869,-223.49819)"><rect
       style="font-variation-settings:'opsz' 32, 'wght' 700;fill:#00ffff;fill-opacity:0;stroke:none;stroke-width:1.96721;stroke-linecap:round;paint-order:stroke fill markers"
       id="rect3-3"
       width="65.766121"
       height="65.766121"
       x="7.5981874"
       y="223.49818"
       inkscape:export-filename="Saddle App Icon 1.png"
       inkscape:export-xdpi="96"
       inkscape:export-ydpi="96" /><g
       id="g7-8-5"
       inkscape:export-filename="Saddle App Icon 1.png"
       inkscape:export-xdpi="96"
       inkscape:export-ydpi="96"
       transform="matrix(0.87439667,0,0,0.87439667,-48.193093,176.6992)"><path
         id="rect2-3-3-7-6"
         d="m 72.71652,68.62906 h 50.05799 c 4.08952,0 7.40472,4.55069 7.40472,10.16425 v 2.14825 c 0,7.18961 -4.24598,13.01794 -9.48367,13.01794 0,0 -8.10484,0.0161 -12.38033,0 -6.41548,0.028 -10.67975,-7.04432 -11.70977,-6.75676 2.00631,2.32325 -14.06504,1.00841 -15.42657,-0.0349 -5.83384,-3.26512 -8.39881,-4.47888 -8.46237,-18.53955 z"
         style="font-variation-settings:'opsz' 32, 'wght' 700;fill:#6d4d42;fill-opacity:1;stroke:none;stroke-width:0.113304;stroke-linecap:round;paint-order:stroke fill markers"
         sodipodi:nodetypes="cssssccccc" /><path
         id="rect1-6-9-2"
         d="m 93.751755,79.59728 36.392325,-1.81295 -0.0119,25.16644 c -0.002,3.97548 -3.22276,7.19824 -7.19824,7.19824 h -21.85195 c -5.628699,0 -10.19166,-4.56296 -10.19165,-10.19166 z"
         style="font-variation-settings:'opsz' 32, 'wght' 700;fill:#f67c00;fill-opacity:1;stroke:none;stroke-width:0.0884798;stroke-linecap:round;paint-order:stroke fill markers"
         sodipodi:nodetypes="ccssssc" /><path
         id="rect7-1-0-2-9"
         style="font-variation-settings:'opsz' 32, 'wght' 700;fill:#dd770e;fill-opacity:1;stroke-width:0.125849;stroke-linecap:round;stroke-linejoin:round;paint-order:stroke fill markers"
         d="m 126.8408,82.34637 2.18088,-4.4394 c -0.10749,-1.09491 1.14025,-6.65577 1.15755,-0.17228 0,12.10827 -2.89704,11.76071 -21.8896,11.75343 -5.32032,-10e-4 -11.98441,-6.73054 -16.174901,-9.81381 z"
         sodipodi:nodetypes="cccscc" /><path
         id="rect2-6-02-1"
         d="m 72.64923,66.27702 h 50.11661 c 4.0943,0 7.41339,3.31909 7.41339,7.41339 v 1.56685 c 0,5.24382 -4.25096,9.49477 -9.49477,9.49477 0,0 -8.11434,0.0118 -12.39483,0 -6.42299,0.0204 -10.69226,-5.13785 -11.72349,-4.92811 2.00867,1.69449 -14.0815,0.73549 -15.44463,-0.0254 -5.84068,-2.38144 -8.40864,-3.26671 -8.47228,-13.522 z"
         style="font-variation-settings:'opsz' 32, 'wght' 700;fill:#ffa001;fill-opacity:1;stroke:none;stroke-width:0.0968208;stroke-linecap:round;paint-order:stroke fill markers"
         sodipodi:nodetypes="cssssccccc" /><path
         id="rect4-2-3-2"
         style="font-variation-settings:'opsz' 32, 'wght' 700;fill:#ffa001;fill-opacity:1;stroke-width:0.112473;stroke-linecap:round;paint-order:stroke fill markers"
         d="m 76.097302,57.67093 c 3.82534,4.317752 6.28553,8.585299 22.019378,9.167366 H 72.64483 v -6.43225 c 0.704433,-2.446655 2.148731,-2.592579 3.452472,-2.735095 z"
         sodipodi:nodetypes="cccccc" /><rect
         style="font-variation-settings:'opsz' 32, 'wght' 700;fill:#4d342f;fill-opacity:1;stroke-width:0.1;stroke-linecap:round;paint-order:stroke fill markers"
         id="rect5-6-7-7"
         width="3.3208239"
         height="29.087053"
         x="113.24747"
         y="84.757271" /><path
         id="rect7-18-5-0"
         style="font-variation-settings:'opsz' 32, 'wght' 700;fill:#ffa001;fill-opacity:1;stroke-width:0.10678;stroke-linecap:round;stroke-linejoin:round;paint-order:stroke fill markers"
         d="m 126.8408,79.61061 2.18088,-3.19597 c -0.10749,-0.78824 1.14025,-4.79156 1.15755,-0.12403 0,8.71688 -2.89704,8.46666 -21.8896,8.46142 -5.32032,-0.001 -10.95542,-3.00522 -15.145913,-5.22491 z"
         sodipodi:nodetypes="cccscc" /><rect
         style="font-variation-settings:'opsz' 32, 'wght' 700;fill:none;fill-opacity:1;stroke:#4d342f;stroke-width:2.7691;stroke-linecap:round;stroke-linejoin:round;stroke-dasharray:none;stroke-opacity:1;paint-order:stroke fill markers"
         id="rect6-7-9-9"
         width="10.909649"
         height="10.216578"
         x="109.45306"
         y="112.98399"
         ry="3.1622734" /></g></g></svg>
