<?xml version="1.0" encoding="UTF-8" standalone="no"?>
<!-- Created with Inkscape (http://www.inkscape.org/) -->

<svg
   width="66.730553mm"
   height="66.93mm"
   viewBox="0 0 66.730553 66.93"
   version="1.1"
   id="svg1"
   xml:space="preserve"
   inkscape:version="1.4.3 (0d15f75042, 2025-12-25)"
   sodipodi:docname="Saddle App Icons Main.svg"
   xmlns:inkscape="http://www.inkscape.org/namespaces/inkscape"
   xmlns:sodipodi="http://sodipodi.sourceforge.net/DTD/sodipodi-0.dtd"
   xmlns="http://www.w3.org/2000/svg"
   xmlns:svg="http://www.w3.org/2000/svg"><sodipodi:namedview
     id="namedview1"
     pagecolor="#ffffff"
     bordercolor="#666666"
     borderopacity="1.0"
     inkscape:showpageshadow="2"
     inkscape:pageopacity="0.0"
     inkscape:pagecheckerboard="0"
     inkscape:deskcolor="#d1d1d1"
     inkscape:document-units="mm"
     inkscape:zoom="2.8284271"
     inkscape:cx="529.09265"
     inkscape:cy="403.05086"
     inkscape:current-layer="layer1"
     inkscape:export-bgcolor="#00000000"><inkscape:page
       x="0"
       y="0"
       width="66.730553"
       height="66.93"
       id="page2"
       margin="0"
       bleed="0" /></sodipodi:namedview><defs
     id="defs1"><filter
       inkscape:collect="always"
       style="color-interpolation-filters:sRGB"
       id="filter552"
       x="-0.19105125"
       y="-0.19105125"
       width="1.3821025"
       height="1.3821025"><feGaussianBlur
         inkscape:collect="always"
         stdDeviation="0.17127105"
         id="feGaussianBlur552" /></filter><filter
       inkscape:collect="always"
       style="color-interpolation-filters:sRGB"
       id="filter552-5"
       x="-0.19105125"
       y="-0.19105125"
       width="1.3821025"
       height="1.3821025"><feGaussianBlur
         inkscape:collect="always"
         stdDeviation="0.17127105"
         id="feGaussianBlur552-0" /></filter><filter
       inkscape:collect="always"
       style="color-interpolation-filters:sRGB"
       id="filter552-6"
       x="-0.19105125"
       y="-0.19105125"
       width="1.3821025"
       height="1.3821025"><feGaussianBlur
         inkscape:collect="always"
         stdDeviation="0.17127105"
         id="feGaussianBlur552-1" /></filter><filter
       inkscape:collect="always"
       style="color-interpolation-filters:sRGB"
       id="filter552-8"
       x="-0.19105125"
       y="-0.19105125"
       width="1.3821025"
       height="1.3821025"><feGaussianBlur
         inkscape:collect="always"
         stdDeviation="0.17127105"
         id="feGaussianBlur552-10" /></filter></defs><g
     inkscape:label="Layer 1"
     inkscape:groupmode="layer"
     id="layer1"
     transform="translate(-67.138,-58.064685)"><g
       id="g554"
       inkscape:export-filename="Saddle App Icon 1.png"
       inkscape:export-xdpi="96"
       inkscape:export-ydpi="96"><path
         style="fill:#000000;fill-opacity:1;stroke-width:2.98773"
         d="m 88.2574,124.76053 c -0.66002,-0.18078 -1.495523,-0.61851 -1.856704,-0.97273 -0.638534,-0.62626 -0.655487,-0.71893 -0.613875,-3.35873 0.02417,-1.49309 0.142937,-3.69476 0.265023,-4.89259 0.222414,-2.17788 0.222414,-2.17788 -0.537903,-2.87611 -0.710033,-0.65209 -0.760379,-0.81196 -0.76195,-2.41986 -9.37e-4,-0.9469 -0.08552,-1.84919 -0.188266,-2.00509 -0.102746,-0.1559 -1.05408,-0.56585 -2.114354,-0.91101 -1.060305,-0.34516 -2.632797,-1.03432 -3.49447,-1.53145 -0.861643,-0.49714 -2.616508,-1.75964 -3.89965,-2.80556 -1.4592,-1.18942 -2.799728,-2.54892 -3.579144,-3.629793 -0.685404,-0.950468 -1.729511,-2.708169 -2.320238,-3.906002 -0.590757,-1.197832 -1.24425,-2.994584 -1.452219,-3.992776 -0.207909,-0.998195 -0.445644,-2.631604 -0.528203,-3.629799 -0.0825,-0.998195 -0.02418,-2.84939 0.130849,-4.113769 0.154421,-1.264379 0.605444,-3.255212 1.002133,-4.424073 0.396719,-1.16886 1.243343,-3.020056 1.881363,-4.113769 0.63802,-1.093712 2.256596,-3.368332 3.596853,-5.054711 1.340256,-1.686378 2.64987,-3.537577 2.91027,-4.113772 0.26049,-0.576194 0.658992,-1.864331 0.885788,-2.862523 0.226947,-0.998195 0.615174,-2.020896 0.863003,-2.27267 0.345769,-0.351307 1.016547,-0.507381 2.884191,-0.671081 1.338503,-0.11733 2.934778,-0.145599 3.547293,-0.06286 0.612545,0.08274 1.648614,0.349147 2.302439,0.591986 0.653824,0.242842 2.282101,1.04666 3.618459,1.786269 1.336328,0.739605 3.312459,1.714077 4.391379,2.165489 1.07895,0.451413 2.759113,0.998036 3.733716,1.214715 0.974602,0.21667 2.309267,0.393961 2.965907,0.393961 0.65663,0 2.02532,-0.225207 3.04154,-0.500489 1.01621,-0.275275 2.62557,-0.900059 3.5763,-1.388419 0.95076,-0.48836 2.90208,-1.694263 4.33632,-2.679785 1.43421,-0.985523 3.10896,-2.017419 3.72169,-2.293103 0.79809,-0.359102 1.63154,-0.503735 2.93898,-0.510018 1.825,-0.0089 1.825,-0.0089 2.86032,1.140663 0.56942,0.632189 1.15531,1.149435 1.30199,1.149435 0.14657,0 0.55365,-0.367807 0.90444,-0.817349 0.35078,-0.449543 1.1629,-1.157353 1.80473,-1.572913 0.64726,-0.419082 1.49334,-0.75556 1.89985,-0.75556 0.4031,0 1.095,0.218738 1.53756,0.486112 0.44256,0.267359 0.95575,0.839055 1.14039,1.270428 0.18464,0.431376 0.33972,1.655469 0.34465,2.72021 0.009,1.821455 0.0716,2.045927 1.06952,3.797363 0.89086,1.56356 1.10578,2.211314 1.34289,4.04745 0.21757,1.684748 0.21213,2.617337 -0.0242,4.067198 -0.21123,1.297911 -0.65144,2.574363 -1.42016,4.116687 -0.88252,1.770728 -1.55351,2.686754 -3.22745,4.406202 -1.16232,1.193904 -2.85908,2.650984 -3.77055,3.237964 -0.91148,0.586976 -2.33348,1.400912 -3.16,1.808742 -0.8265,0.407833 -2.38407,1.016278 -3.46123,1.352104 -1.07714,0.335828 -2.96107,0.788257 -4.18649,1.005399 -1.2254,0.217143 -2.33904,0.499201 -2.47472,0.626799 -0.14385,0.135319 -0.24689,1.865879 -0.2475,4.15302 -8.5e-4,3.921026 -8.5e-4,3.921026 -0.92924,5.821668 -0.66721,1.3659 -1.35836,2.31187 -2.45662,3.36233 -1.09642,1.0487 -2.10405,1.72175 -3.56633,2.38212 -1.12099,0.50624 -2.70523,1.0894 -3.52052,1.29591 -0.81532,0.20651 -1.824008,0.37548 -2.241578,0.37548 -0.446007,0 -0.953782,0.20417 -1.230893,0.49494 -0.314915,0.3304 -0.528082,1.03251 -0.641223,2.11201 -0.09821,0.93751 -0.336341,1.7973 -0.566521,2.04592 -0.218486,0.23587 -0.538901,0.42885 -0.71233,0.42885 -0.173459,0 -0.490338,0.17112 -0.704291,0.38026 -0.272578,0.26638 -0.389013,0.84354 -0.389013,1.92722 0,0.85082 -0.126015,2.63075 -0.280133,3.9554 -0.185849,1.59698 -0.456855,2.7133 -0.804559,3.31324 -0.288292,0.49763 -0.804468,1.10768 -1.146792,1.35565 -0.342324,0.24799 -1.177828,0.50195 -1.856674,0.56437 -0.678847,0.0624 -1.774296,-0.0344 -2.434286,-0.2152 z"
         id="path516-1" /><path
         style="fill:#c87128;stroke-width:2.98773"
         d="m 87.972069,124.24101 c -0.544642,-0.19179 -1.015217,-0.35035 -1.045769,-0.35235 -0.03052,-0.002 -0.225436,-0.32492 -0.433224,-0.71759 -0.207606,-0.39267 -0.379645,-1.18215 -0.382002,-1.7544 -0.0024,-0.57225 0.132361,-2.75554 0.299171,-4.85175 0.303553,-3.81128 0.303553,-3.81128 1.303993,-3.81163 0.550233,-1.9e-4 2.225833,0.12427 3.723563,0.2766 1.497729,0.15234 2.791296,0.34305 2.874641,0.42383 0.0834,0.0808 0.06104,1.65525 -0.04956,3.49883 -0.110602,1.84358 -0.323104,3.91256 -0.472267,4.59774 -0.149283,0.68518 -0.461056,1.46692 -0.69311,1.7372 -0.232084,0.27028 -0.69731,0.67863 -1.033953,0.90745 -0.388349,0.26393 -1.067104,0.41215 -1.856705,0.40541 -0.684527,-0.006 -1.690195,-0.16755 -2.234808,-0.35934 z m 1.683246,-14.61353 c -1.116543,-0.0864 -2.119159,-0.24417 -2.228009,-0.35063 -0.108789,-0.10646 -0.197936,-1.2638 -0.197936,-2.57186 0,-1.30806 -0.07162,-2.4487 -0.158954,-2.53476 -0.08733,-0.086 -0.564859,0.009 -1.06103,0.21198 -0.613542,0.25058 -1.006363,0.62281 -1.227992,1.16361 -0.1792,0.43734 -0.391158,0.97714 -0.470967,1.19956 -0.13357,0.37226 -0.259282,0.3754 -1.583764,0.0396 -0.791292,-0.20066 -2.088698,-0.70217 -2.883073,-1.11446 -0.794405,-0.41229 -2.665161,-1.77517 -4.157239,-3.02862 -2.071987,-1.74062 -3.064328,-2.789945 -4.200604,-4.441822 -0.818278,-1.18955 -1.716275,-2.675712 -1.995532,-3.302581 -0.279226,-0.62687 -0.739617,-1.902021 -1.022984,-2.833667 -0.421559,-1.38595 -0.517656,-2.375809 -0.528566,-5.444697 -0.01209,-3.157103 0.07434,-4.065581 0.540593,-5.739586 0.304672,-1.09384 0.829097,-2.563906 1.165378,-3.266818 0.33628,-0.702912 1.088378,-2.065916 1.671309,-3.028897 0.58296,-0.962981 1.227024,-1.943072 1.431246,-2.177973 0.204283,-0.234896 0.553134,-0.699291 0.775337,-1.031967 0.222112,-0.33268 1.082395,-1.35256 1.911552,-2.266402 0.910478,-1.00348 1.693158,-2.153547 1.976192,-2.903837 0.25777,-0.683269 0.608828,-1.982953 0.780141,-2.888185 0.171344,-0.905232 0.457067,-1.788188 0.635029,-1.962127 0.178898,-0.174931 1.537709,-0.452957 3.040485,-0.622152 2.131488,-0.239976 2.983672,-0.243373 3.954649,-0.01566 0.68075,0.15963 2.762346,1.103621 4.62579,2.097754 1.863473,0.994136 4.24137,2.139247 5.284238,2.544694 1.042898,0.405446 2.731644,0.8959 3.752844,1.089896 1.180762,0.224321 2.386722,0.29424 3.312672,0.192093 0.80081,-0.08835 2.21027,-0.402117 3.13214,-0.697282 0.92187,-0.295155 2.49469,-0.994936 3.49516,-1.55505 1.00044,-0.560113 2.76592,-1.683658 3.92326,-2.496766 1.15733,-0.813108 2.66123,-1.733325 3.34204,-2.044929 0.84952,-0.388851 1.68935,-0.567294 2.67752,-0.568916 0.79184,-0.0013 1.651,0.108173 1.90922,0.243256 0.25838,0.135082 0.81327,0.734005 1.23341,1.330924 0.42013,0.59692 0.94278,1.085312 1.16138,1.085312 0.21849,0 0.7981,-0.415564 1.28777,-0.92347 0.48967,-0.507909 1.29076,-1.215721 1.78016,-1.572912 0.49992,-0.364874 1.21318,-0.649443 1.62785,-0.649443 0.45003,0 0.93601,0.212475 1.24537,0.544469 0.27892,0.299457 0.63267,0.782323 0.78582,1.07303 0.15321,0.290695 0.27862,1.365402 0.27862,2.388212 0,1.698974 0.075,1.980297 0.86781,3.256075 0.47732,0.768034 1.01906,1.81677 1.20388,2.330525 0.18494,0.513755 0.41267,1.750804 0.50629,2.748999 0.11967,1.276374 0.0574,2.335107 -0.21002,3.56807 -0.20912,0.964246 -0.67341,2.434312 -1.03178,3.266818 -0.35834,0.832504 -1.10382,2.058112 -1.65656,2.723577 -0.55274,0.665463 -1.57017,1.792756 -2.26089,2.505094 -0.69075,0.712338 -2.08631,1.837941 -3.10128,2.501336 -1.01495,0.663394 -2.35176,1.456625 -2.97068,1.762737 -0.61892,0.306109 -2.07223,0.880263 -3.22957,1.275896 -1.15734,0.395633 -3.17868,0.906 -4.49186,1.134146 -1.84053,0.319762 -2.51273,0.544969 -2.93354,0.982823 -0.50303,0.52342 -0.52451,0.665433 -0.27348,1.809031 0.14958,0.68256 0.26865,2.24293 0.26412,3.467484 -0.006,1.474385 -0.15382,2.635169 -0.43948,3.436397 -0.23723,0.665461 -0.89997,1.881581 -1.47268,2.702481 -0.57272,0.8209 -1.5252,1.88014 -2.11662,2.35386 -0.59142,0.47372 -1.94875,1.2504 -3.01628,1.72594 -1.06753,0.47554 -2.61878,1.02088 -3.44718,1.21186 -0.82843,0.19097 -1.812582,0.34885 -2.187029,0.35082 -0.627746,0.003 -0.680781,-0.0704 -0.680781,-0.94709 0,-0.5412 -0.167415,-1.11428 -0.38865,-1.33056 -0.213651,-0.20893 -0.676671,-0.45057 -1.028726,-0.53694 -0.457188,-0.11216 -0.73031,-0.0365 -0.955776,0.26494 -0.173761,0.23209 -0.38578,1.14652 -0.471482,2.03207 -0.08582,0.88555 -0.177991,1.77342 -0.205491,1.97306 -0.03777,0.27702 -0.42999,0.36958 -1.656139,0.39085 -0.883612,0.0154 -2.520108,-0.0428 -3.636681,-0.12918 z"
         id="path418-6" /><path
         style="fill:#c87022;stroke-width:2.98773"
         d="m 87.972069,124.24101 c -0.544642,-0.19179 -1.015217,-0.35035 -1.045769,-0.35235 -0.03052,-0.002 -0.225436,-0.32492 -0.433224,-0.71759 -0.207606,-0.39267 -0.379645,-1.18215 -0.382002,-1.7544 -0.0024,-0.57225 0.132361,-2.75554 0.299171,-4.85175 0.303553,-3.81128 0.303553,-3.81128 1.303993,-3.81163 0.550233,-1.9e-4 2.225833,0.12427 3.723563,0.2766 1.497729,0.15234 2.791296,0.34305 2.874641,0.42383 0.0834,0.0808 0.06104,1.65525 -0.04956,3.49883 -0.110602,1.84358 -0.323104,3.91256 -0.472267,4.59774 -0.149283,0.68518 -0.461056,1.46692 -0.69311,1.7372 -0.232084,0.27028 -0.69731,0.67863 -1.033953,0.90745 -0.388349,0.26393 -1.067104,0.41215 -1.856705,0.40541 -0.684527,-0.006 -1.690195,-0.16755 -2.234808,-0.35934 z m 1.683246,-14.61353 c -1.116543,-0.0864 -2.119159,-0.24429 -2.228009,-0.35093 -0.108789,-0.10664 -0.21365,-1.30078 -0.232991,-2.65366 -0.01813,-1.35287 -0.03294,-2.89535 -0.03022,-3.42772 0.0028,-0.53237 -6.04e-4,-1.13129 -0.006,-1.33092 -0.006,-0.19963 -0.09126,-0.82353 -0.187662,-1.38643 -0.0961,-0.562896 -0.262908,-0.970248 -0.370579,-0.905226 -0.107581,0.06502 -0.367406,-0.04963 -0.577249,-0.254776 -0.210024,-0.20515 -0.457218,-0.767118 -0.549689,-1.248838 -0.09247,-0.481722 -0.0689,-1.149911 0.05228,-1.484865 0.121179,-0.334951 0.359489,-0.654202 0.529684,-0.70944 0.181316,-0.05887 0.309446,0.108143 0.309446,0.4037 0,0.286796 0.160162,0.50414 0.371334,0.50414 0.248705,0 0.379494,0.259413 0.396024,0.786455 0.02418,0.745141 0.03505,0.754676 0.223019,0.181489 0.109092,-0.332733 0.210931,-1.476119 0.226645,-2.54086 0.01511,-1.06474 0.136591,-2.09923 0.268347,-2.298871 0.207607,-0.314132 0.240546,-0.308835 0.24387,0.03935 0.003,0.350592 0.377862,0.405665 2.912597,0.428266 1.603345,0.01418 3.492112,0.176851 4.208491,0.362221 0.714808,0.184975 1.299672,0.237259 1.299672,0.116208 0,-0.121052 0.117855,-0.220068 0.262304,-0.220068 0.144146,0 0.184035,0.136117 0.08884,0.302482 -0.09519,0.166365 0.0272,0.119309 0.269254,-0.104569 0.243266,-0.223877 0.534126,-0.822791 0.64618,-1.330927 0.194914,-0.883556 0.199145,-0.874721 0.09549,0.202402 -0.07676,0.797831 -0.0022,1.212245 0.255051,1.421055 0.199749,0.162111 0.363326,0.665258 0.363326,1.118083 0,0.662667 -0.124805,0.869696 -0.639652,1.061039 -0.351813,0.130741 -0.725867,0.185654 -0.831212,0.122027 -0.105465,-0.06366 -0.324253,1.37842 -0.48644,3.204587 -0.162278,1.826166 -0.360547,3.689946 -0.440839,4.141736 -0.10335,0.58093 -0.06346,0.77159 0.135987,0.65118 0.155025,-0.0936 0.281946,-0.11434 0.281946,-0.046 0,0.0683 -0.268045,0.38621 -0.595472,0.70635 -0.466948,0.45643 -0.630465,0.94197 -0.757567,2.24938 -0.08915,0.91701 -0.184338,1.83064 -0.211536,2.03027 -0.03777,0.27702 -0.42999,0.36958 -1.656138,0.39085 -0.883613,0.0154 -2.520109,-0.0428 -3.636682,-0.12918 z m 9.333081,-2.12646 c 0.34039,-0.0626 0.756721,-0.22535 0.925164,-0.36156 0.16832,-0.1362 0.47484,-0.18444 0.68078,-0.10716 0.2061,0.0773 0.37451,0.0233 0.37451,-0.11982 0,-0.14314 0.15986,-0.2003 0.35535,-0.12698 0.19552,0.0733 0.39037,0.0315 0.43322,-0.093 0.0429,-0.12448 0.38354,-0.25094 0.75715,-0.28104 0.3736,-0.0301 0.65657,-0.16716 0.62883,-0.30457 -0.0272,-0.13741 0.0882,-0.49483 0.25777,-0.79429 0.18706,-0.3305 0.54247,-0.54447 0.90434,-0.54447 0.33541,0 0.7647,-0.23522 0.98153,-0.53782 0.21183,-0.2958 0.38538,-0.39304 0.38538,-0.21608 0,0.20293 0.15473,0.26364 0.41933,0.16441 0.37444,-0.14045 0.38109,-0.10941 0.0619,0.2899 -0.19643,0.24598 -0.0511,0.11866 0.32334,-0.28292 0.37442,-0.40157 0.68078,-0.63924 0.68078,-0.52816 0,0.1111 0.16591,0.0674 0.36862,-0.0971 0.20277,-0.16448 0.30754,-0.39559 0.23299,-0.51361 -0.0746,-0.11801 -0.0121,-0.21457 0.14112,-0.21457 0.15231,0 0.19733,-0.12572 0.10003,-0.27938 -0.10486,-0.16601 -0.0683,-0.21395 0.0904,-0.11816 0.14687,0.0887 0.50578,-0.16675 0.79779,-0.56758 0.29192,-0.40084 0.43975,-0.73047 0.32837,-0.73251 -0.11151,-0.002 -0.0743,-0.0837 0.0822,-0.18148 0.15654,-0.0978 0.32368,-0.39558 0.37134,-0.66176 0.0477,-0.26618 0.18192,-0.552011 0.29856,-0.635164 0.11665,-0.08315 0.24387,-0.518732 0.28286,-0.967947 0.0417,-0.483146 -0.0867,-0.99081 -0.31474,-1.24288 -0.24931,-0.275778 -0.42482,-1.075835 -0.49701,-2.26748 -0.10849,-1.79103 -0.0922,-1.856858 0.59782,-2.408514 0.39017,-0.311937 0.59327,-0.571076 0.45136,-0.575861 -0.16409,-0.0056 -0.21758,-0.603912 -0.14717,-1.642112 0.0611,-0.898376 0.11604,-2.123431 0.12209,-2.722348 0.006,-0.598916 -0.0752,-1.614778 -0.18041,-2.257475 -0.14233,-0.867646 -0.28255,-1.134418 -0.54476,-1.036037 -0.19431,0.07287 -0.35324,0.04366 -0.35324,-0.06493 0,-0.108586 0.25052,-0.324322 0.557,-0.479436 0.50068,-0.253505 0.4694,-0.269279 -0.30944,-0.155967 -0.47653,0.06933 -1.8574,0.245087 -3.06856,0.390603 -1.64236,0.197322 -2.57713,0.192448 -3.67763,-0.0192 -0.81151,-0.156056 -1.90312,-0.501623 -2.42573,-0.767905 -0.522646,-0.266266 -1.251807,-0.449102 -1.620392,-0.40627 -0.376382,0.04375 -0.889596,0.36646 -1.170726,0.73617 -0.431743,0.567791 -0.469155,0.817312 -0.271974,1.814901 0.138102,0.698381 0.14052,2.224409 0.006,3.851866 -0.222112,2.695263 -0.222112,2.695263 -1.237783,2.834104 -0.558604,0.07636 -2.352482,0.02718 -3.986379,-0.109089 -1.633867,-0.136382 -3.218447,-0.346371 -3.521244,-0.466672 -0.54017,-0.214602 -0.547997,-0.279264 -0.415455,-3.433115 0.07434,-1.76791 0.23843,-3.530089 0.364868,-3.915954 0.126316,-0.385864 0.229666,-0.955484 0.229666,-1.26582 0,-0.391326 -0.170739,-0.597853 -0.557002,-0.673907 -0.306363,-0.06032 -0.946922,-0.171121 -1.42348,-0.246269 -0.510495,-0.08049 -0.733423,-0.05276 -0.542648,0.0675 0.210326,0.132512 0.26593,0.429444 0.158953,0.846614 -0.09066,0.353378 -0.264419,0.642507 -0.385689,0.642507 -0.121481,0 -0.233897,-0.244998 -0.249913,-0.544469 -0.02418,-0.446964 -0.06558,-0.414462 -0.23148,0.181489 -0.189173,0.680025 -0.199145,0.665267 -0.156234,-0.233242 0.0414,-0.867516 -0.02417,-0.982064 -0.696948,-1.198503 -0.408474,-0.131627 -1.174715,-0.516688 -1.702797,-0.855707 -0.528082,-0.339015 -1.404503,-1.237226 -1.947634,-1.99602 -0.676792,-0.945568 -1.027245,-1.72442 -1.113854,-2.475528 -0.0695,-0.602747 -0.195821,-1.053776 -0.280435,-1.002289 -0.08461,0.05149 -0.136893,-0.52238 -0.116042,-1.275261 0.02115,-0.752883 -0.01511,-1.062631 -0.07978,-0.688331 -0.09731,0.562645 -0.180107,0.63008 -0.476921,0.38925 -0.293127,-0.237791 -0.330448,-0.218354 -0.203074,0.105898 0.08582,0.218472 0.227552,0.398144 0.315127,0.39929 0.08764,0.0011 0.190382,0.809466 0.228156,1.796265 0.03808,0.986798 -0.03747,1.858595 -0.168019,1.937323 -0.130245,0.07872 -0.30866,-0.07781 -0.396357,-0.34786 -0.08764,-0.270047 -0.267138,-0.425849 -0.399076,-0.346217 -0.146261,0.08832 -0.17497,-0.107405 -0.07373,-0.501972 0.09126,-0.355717 0.02115,-1.099874 -0.157745,-1.653684 -0.177991,-0.553813 -0.471209,-1.178845 -0.651256,-1.388966 -0.180107,-0.210113 -0.327335,-0.509575 -0.327335,-0.665463 0,-0.155878 0.0834,-0.27052 0.185546,-0.254775 0.102141,0.01566 0.380612,0.01566 0.618891,0 0.253843,-0.01684 0.433224,-0.223258 0.433224,-0.498347 0,-0.258321 0.118158,-0.541144 0.262908,-0.628474 0.144449,-0.08732 0.391794,-0.44766 0.549418,-0.800737 0.278924,-0.62445 0.288896,-0.612909 0.37215,0.423226 0.08552,1.065181 0.08552,1.065181 0.460603,0.362978 0.206398,-0.38621 0.408625,-1.301116 0.449693,-2.033125 0.07464,-1.330927 0.07464,-1.330927 -0.265325,-0.483973 -0.339786,0.846951 -0.339786,0.846951 -0.203074,0 0.105768,-0.655126 0.07464,-0.764741 -0.136893,-0.483973 -0.223019,0.295755 -0.261397,0.250935 -0.208211,-0.241986 0.03596,-0.332732 -0.02115,-0.74206 -0.128735,-0.909615 -0.106674,-0.167547 -0.12541,-0.515905 -0.0417,-0.774108 0.08613,-0.265173 0.297962,-0.414887 0.486742,-0.344052 0.183734,0.06897 0.413551,0.526215 0.510374,1.016093 0.15714,0.795745 0.197936,0.8344 0.381488,0.362647 0.113021,-0.29043 0.281947,-1.216023 0.375657,-2.056886 0.09368,-0.840863 0.272578,-1.655306 0.397625,-1.809876 0.125108,-0.154579 0.257167,-0.774749 0.29343,-1.378179 0.03626,-0.603433 -0.02418,-1.042232 -0.135987,-0.975116 -0.111207,0.06711 -0.201865,-0.02599 -0.201865,-0.206626 0,-0.23401 -0.267441,-0.303495 -0.928367,-0.241277 -0.510586,0.04809 -1.178825,0.207868 -1.484977,0.355085 -0.306122,0.147224 -0.617803,0.207868 -0.692566,0.134788 -0.07464,-0.07308 0.0272,-0.293768 0.229969,-0.490407 0.229364,-0.224291 1.378302,-0.471529 3.082732,-0.66343 2.131488,-0.239977 2.983672,-0.243374 3.954649,-0.01566 0.68075,0.15963 2.762346,1.10362 4.62579,2.097754 1.863473,0.994136 4.241369,2.139247 5.284238,2.544693 1.042898,0.405446 2.731643,0.895901 3.752844,1.089897 1.180761,0.22432 2.386721,0.29424 3.312671,0.192093 0.80081,-0.08835 2.21027,-0.402117 3.13214,-0.697282 0.92187,-0.295156 2.49469,-0.994937 3.49516,-1.55505 1.00044,-0.560114 2.76592,-1.683658 3.92325,-2.496766 1.15734,-0.813108 2.66124,-1.733326 3.34205,-2.044929 0.88588,-0.405488 1.68306,-0.567224 2.80405,-0.568916 1.4106,-0.0021 1.63205,0.06711 2.22804,0.696587 0.36393,0.384427 0.94625,1.028192 1.29402,1.430596 0.46918,0.542907 0.64995,1.057058 0.70078,1.993155 0.0378,0.693835 -0.17799,2.364062 -0.47897,3.71162 -0.30099,1.347558 -0.7557,2.892836 -1.01024,3.433953 -0.25444,0.541117 -0.46277,1.218351 -0.46277,1.504964 0,0.286619 -0.23451,0.961091 -0.52135,1.49884 -0.28678,0.537747 -0.64908,1.058346 -0.80519,1.156886 -0.15623,0.09854 -0.7362,0.778077 -1.28907,1.510088 -0.55286,0.732008 -1.13739,1.635427 -1.29894,2.007597 -0.16167,0.372168 -0.6324,0.862191 -1.04635,1.088939 -0.41391,0.226743 -1.51643,0.956737 -2.45003,1.622199 -0.93362,0.665463 -1.89514,1.325244 -2.13668,1.466179 -0.41781,0.243787 -0.41183,0.38297 0.12269,2.861094 0.30905,1.432663 0.58976,2.732973 0.62376,2.889575 0.0338,0.156588 0.14626,0.475298 0.2493,0.708209 0.11544,0.260536 0.45759,0.423477 0.88924,0.423477 0.38587,0 0.77512,-0.116325 0.865,-0.258498 0.09,-0.142172 0.31926,-0.200039 0.50973,-0.128584 0.19039,0.07146 0.34629,0.03175 0.34629,-0.08817 0,-0.119959 0.25052,-0.29785 0.55703,-0.395341 0.30633,-0.09748 0.8912,-0.17821 1.29967,-0.179362 0.40848,-0.0012 0.86986,-0.169615 1.02531,-0.374383 0.15533,-0.204766 0.54537,-0.38933 0.86648,-0.410167 0.32108,-0.02097 0.89948,-0.161845 1.28535,-0.313349 0.38584,-0.151507 0.79591,-0.218472 0.91123,-0.148789 0.11544,0.06965 0.29041,-8.24e-4 0.3888,-0.156646 0.10486,-0.165952 0.0722,-0.218797 -0.0786,-0.12761 -0.14173,0.08563 -0.38717,0.0032 -0.54536,-0.183054 -0.20036,-0.2359 -0.20761,-0.387135 -0.0242,-0.498028 0.14505,-0.08758 0.19945,-0.260625 0.12118,-0.384524 -0.0783,-0.123887 0.0432,-0.225266 0.26986,-0.225266 0.27469,0 0.36215,0.128082 0.262,0.3832 -0.0955,0.24299 -0.0372,0.346734 0.15925,0.283518 0.17044,-0.05482 0.3452,-0.335979 0.38869,-0.624799 0.0565,-0.374932 -0.0961,-0.590176 -0.53298,-0.752573 -0.33659,-0.125099 -0.67888,-0.333235 -0.76062,-0.462525 -0.0819,-0.129293 -0.0807,-0.408244 0.002,-0.619895 0.0916,-0.232917 0.44295,-0.384816 0.89044,-0.384816 0.53116,0 0.77582,0.136293 0.86883,0.483973 0.0713,0.266178 0.22,0.483973 0.33093,0.483973 0.11091,0 0.23723,0.213569 0.28044,0.474619 0.0786,0.471371 0.0864,0.471363 1.16075,-0.0011 0.5949,-0.261628 1.47422,-0.88357 1.95407,-1.382068 0.47983,-0.498498 0.7816,-0.743021 0.6706,-0.543383 -0.12994,0.233921 -0.0121,0.199065 0.33583,-0.09801 0.29584,-0.253535 0.53769,-0.498551 0.53769,-0.54447 0,-0.0459 -0.13931,-0.05627 -0.30945,-0.02304 -0.18161,0.03551 -0.30944,-0.189553 -0.30944,-0.54447 0,-0.548502 -0.11544,-0.616259 -1.23781,-0.725958 -0.8802,-0.08605 -1.23779,-0.225857 -1.23779,-0.483974 0,-0.289484 0.32081,-0.353939 1.58449,-0.318332 0.8715,0.02452 1.6513,0.150266 1.73293,0.279382 0.0816,0.129086 0.2203,0.272351 0.30808,0.318332 0.0879,0.04599 0.38246,-0.11349 0.65473,-0.354352 0.27228,-0.240863 0.54761,-0.706422 0.61176,-1.034546 0.0722,-0.368652 -0.0212,-0.671952 -0.24387,-0.793846 -0.20518,-0.112278 -0.32428,-0.448434 -0.2762,-0.780355 0.0547,-0.378666 0.25777,-0.595286 0.57939,-0.617868 0.27228,-0.0192 0.6315,-0.04635 0.79822,-0.0605 0.16681,-0.01418 0.47305,-0.346997 0.68078,-0.739664 0.2076,-0.392668 0.37768,-0.943565 0.37768,-1.224214 0,-0.343813 0.10093,-0.45099 0.30944,-0.328544 0.24387,0.143176 0.24599,0.105159 0.0121,-0.179303 -0.19249,-0.23274 -0.25565,-0.869596 -0.17769,-1.792351 0.0665,-0.787226 0.0151,-1.707381 -0.11392,-2.04479 -0.12934,-0.337405 -0.29525,-1.036536 -0.36922,-1.55362 -0.12239,-0.858365 -0.10305,-0.900468 0.22483,-0.483971 0.30567,0.388394 0.30376,0.297756 -0.0121,-0.610011 -0.20458,-0.586406 -0.32383,-1.113099 -0.26502,-1.170432 0.0586,-0.05734 0.30488,0.191503 0.54715,0.552941 0.2756,0.411042 0.44522,1.135213 0.45302,1.933466 0.006,0.701955 0.11181,1.216365 0.23329,1.143135 0.12722,-0.07666 0.16772,0.985407 0.0955,2.503784 -0.10516,2.215237 -0.24961,2.939994 -0.90229,4.532056 -0.50708,1.236781 -1.28676,2.504928 -2.24438,3.650503 -0.80707,0.965454 -2.09689,2.31775 -2.86628,3.005098 -0.76938,0.687348 -1.51314,1.249724 -1.65275,1.249724 -0.13961,0 -0.65981,0.312454 -1.15595,0.694343 -0.49614,0.381888 -1.45908,0.968463 -2.13986,1.303497 -0.68081,0.335034 -2.1847,0.932854 -3.34204,1.328488 -1.15734,0.395633 -3.17868,0.906 -4.49186,1.134146 -1.84054,0.319762 -2.51273,0.544969 -2.93354,0.982822 -0.50303,0.52342 -0.52451,0.665433 -0.27348,1.809032 0.14958,0.682559 0.26865,2.24293 0.26411,3.467483 -0.006,1.474385 -0.15381,2.63517 -0.43947,3.436397 -0.23723,0.665466 -0.90719,1.891986 -1.48873,2.725586 -0.58154,0.83362 -1.58428,1.92255 -2.22828,2.41987 -0.644,0.49731 -1.66928,1.10652 -2.27841,1.35378 -0.60913,0.24727 -1.4052,0.6023 -1.76901,0.78898 -0.36378,0.18669 -1.0322,0.39252 -1.48534,0.45743 -0.45314,0.0649 -1.38087,0.15984 -2.061651,0.21097 -0.68078,0.0511 -0.959312,0.0417 -0.618891,-0.021 z"
         id="path395-4" /><path
         style="fill:#733d23;fill-opacity:1;stroke:#000000;stroke-width:0.488;stroke-dasharray:none;stroke-opacity:1"
         d="m 88.34697,124.37572 c -0.474594,-0.116 -1.185896,-0.56429 -1.580681,-0.99618 -0.717799,-0.78527 -0.717799,-0.78527 -0.565524,-3.22522 0.08371,-1.34198 0.226343,-3.55612 0.317,-4.92032 0.164696,-2.48036 0.164696,-2.48036 1.128722,-2.48036 0.530197,0 2.045756,0.11109 3.367911,0.24685 1.322155,0.13577 2.62911,0.29495 2.904347,0.35371 0.457943,0.0978 0.494206,0.26674 0.427452,1.99152 -0.04019,1.03657 -0.190684,2.96885 -0.334769,4.29395 -0.144147,1.32511 -0.409351,2.68629 -0.589639,3.02483 -0.18041,0.33855 -0.615991,0.87875 -0.968257,1.20045 -0.47807,0.43657 -0.970614,0.60225 -1.942104,0.65329 -0.715865,0.0376 -1.689894,-0.0266 -2.164458,-0.14252 z M 89.704965,109.624 c -1.089255,-0.083 -2.091871,-0.21903 -2.228009,-0.30238 -0.153816,-0.0942 -0.231782,-1.96903 -0.205491,-4.95389 0.02418,-2.64129 0.166508,-6.000188 0.318542,-7.464208 0.152003,-1.464016 0.33622,-2.85406 0.409139,-3.088983 0.118762,-0.382887 0.380733,-0.412606 2.528358,-0.286884 1.317713,0.07713 3.164173,0.245589 4.103268,0.374353 0.939065,0.128761 1.816513,0.300018 1.94984,0.380571 0.148377,0.08959 0.18041,0.955682 0.0828,2.230657 -0.08794,1.14631 -0.276506,3.390926 -0.419021,4.988034 -0.142635,1.59711 -0.419746,3.19407 -0.615839,3.54879 -0.196123,0.35473 -0.418688,1.33477 -0.494629,2.17788 -0.07585,0.84311 -0.188569,1.77794 -0.250518,2.07739 -0.10335,0.49975 -0.239337,0.5414 -1.655142,0.50701 -0.848377,-0.0207 -2.433712,-0.10534 -3.522966,-0.18832 z m 1.80092,-17.784248 c -1.596486,-0.149676 -3.003709,-0.378297 -3.127154,-0.508027 -0.13085,-0.137299 -0.142938,-1.297643 -0.03022,-2.776733 0.107279,-1.397474 0.273787,-3.419211 0.370126,-4.492755 0.175272,-1.951891 0.175272,-1.951891 -1.152503,-2.010039 -0.73022,-0.03199 -1.812494,-0.163854 -2.405064,-0.293059 -0.592571,-0.129204 -1.389061,-0.392428 -1.769945,-0.584968 -0.380914,-0.192536 -1.09276,-0.807085 -1.58189,-1.365659 -0.489129,-0.558572 -1.113007,-1.600004 -1.386401,-2.314294 -0.282248,-0.737482 -0.497108,-1.889393 -0.497108,-2.665592 0,-0.751784 0.158047,-2.027205 0.351058,-2.834263 0.193101,-0.807059 0.58982,-2.719657 0.881679,-4.250223 0.291918,-1.530565 0.644789,-3.381761 0.784311,-4.113769 0.139614,-0.732011 0.365714,-1.536086 0.502698,-1.786832 0.177388,-0.324837 0.161674,-0.508677 -0.0547,-0.639453 -0.217882,-0.131598 -0.158954,-0.259414 0.208513,-0.451543 0.281644,-0.1474 0.889293,-0.268009 1.350108,-0.268009 0.460784,0 1.44285,0.171268 2.182377,0.380616 0.739557,0.209344 2.625725,1.073147 4.191539,1.919579 1.565813,0.846431 3.74955,1.916439 4.852797,2.377794 1.103246,0.461352 2.873402,1.027486 3.933707,1.258069 1.304357,0.283665 2.416947,0.3723 3.440377,0.274065 0.83191,-0.07985 2.38805,-0.412681 3.45806,-0.739633 1.07003,-0.326952 2.62965,-1.000463 3.46582,-1.496689 0.83617,-0.49623 2.60696,-1.658429 3.9351,-2.582664 1.32811,-0.924237 2.97246,-1.887576 3.65412,-2.140753 0.68165,-0.253181 1.74501,-0.460325 2.36303,-0.460325 0.61798,0 1.42689,0.153279 1.7975,0.340629 0.37064,0.187337 1.0335,0.883148 1.47307,1.546221 0.64881,0.978743 0.79885,1.44966 0.79743,2.502709 -9.4e-4,0.713419 -0.22755,2.222722 -0.50343,3.354009 -0.2759,1.131287 -0.72006,2.630886 -0.98696,3.332442 -0.26683,0.701557 -0.77957,1.844943 -1.13921,2.540857 -0.35961,0.695917 -1.35337,2.247544 -2.2083,3.448067 -0.85497,1.200521 -2.21616,2.725034 -3.02489,3.387811 -0.80873,0.662774 -2.00004,1.565008 -2.64734,2.004962 -0.64729,0.439957 -1.23355,1.01165 -1.30278,1.270431 -0.0692,0.258763 -0.30781,0.483344 -0.53023,0.499032 -0.22241,0.01566 -0.73856,0.05805 -1.14703,0.09411 -0.40845,0.03607 -1.91237,0.245058 -3.34202,0.464445 -2.44419,0.375054 -2.69541,0.373716 -4.20849,-0.02245 -0.885,-0.231706 -1.88762,-0.561754 -2.22801,-0.733465 -0.34039,-0.171711 -0.907999,-0.31287 -1.261323,-0.313692 -0.353324,-8.18e-4 -0.84466,0.216936 -1.091823,0.483929 -0.382879,0.413552 -0.458488,0.995741 -0.510737,3.932281 -0.03384,1.895773 -0.180107,3.746319 -0.325492,4.112324 -0.240243,0.605525 -0.37064,0.662181 -1.446205,0.62902 -0.650138,-0.02009 -2.488227,-0.158921 -4.084713,-0.308593 z"
         id="path372-7" /><circle
         style="font-variation-settings:'opsz' 32, 'wght' 700;mix-blend-mode:normal;fill:#ffffff;fill-opacity:1;stroke:none;stroke-width:0.4;stroke-linecap:round;paint-order:stroke fill markers;filter:url(#filter552)"
         id="path552"
         cx="83.768951"
         cy="74.975784"
         r="1.0757599" /><circle
         style="font-variation-settings:'opsz' 32, 'wght' 700;mix-blend-mode:normal;fill:#ffffff;fill-opacity:1;stroke:none;stroke-width:0.4;stroke-linecap:round;paint-order:stroke fill markers;filter:url(#filter552-5)"
         id="path552-3"
         cx="75.040977"
         cy="80.597221"
         r="1.0757599" /><circle
         style="font-variation-settings:'opsz' 32, 'wght' 700;mix-blend-mode:normal;fill:#ffffff;fill-opacity:1;stroke:none;stroke-width:0.4;stroke-linecap:round;paint-order:stroke fill markers;filter:url(#filter552-6)"
         id="path552-9"
         cx="99.118057"
         cy="85.624306"
         r="1.0757599" /><circle
         style="font-variation-settings:'opsz' 32, 'wght' 700;mix-blend-mode:normal;fill:#ffffff;fill-opacity:1;stroke:none;stroke-width:0.4;stroke-linecap:round;paint-order:stroke fill markers;filter:url(#filter552-8)"
         id="path552-4"
         cx="126.63473"
         cy="78.48056"
         r="1.0757599" /><path
         style="fill:#ffff9e;fill-opacity:1;stroke:none;stroke-width:0.264583px;stroke-linecap:butt;stroke-linejoin:miter;stroke-opacity:1"
         d="m 86.7667,106.2307 c 0.04803,-0.91527 -0.124459,-1.18804 -0.79409,-0.8264 -0.0019,0.002 0.0019,0.006 0,0.008 -0.01249,0.0125 -0.02622,0.024 -0.04134,0.0331 -0.115263,0.0692 0.0316,-0.0431 -0.07441,0.0496 -0.01037,0.009 -0.02185,0.0168 -0.03307,0.0248 -0.01751,0.0125 -0.02858,0.0161 -0.04134,0.0331 -0.614014,0.98938 -0.595395,1.97686 -0.68718,3.02406 -0.0013,0.0137 0,0.0276 0,0.0413 2.22e-4,0.022 0,0.0442 0,0.0661 -0.0013,0.006 -0.0068,0.0106 -0.0083,0.0165 0.07572,0.0421 -0.324318,2.3204 0.42533,3.27094 0.01077,0.004 0.02262,0.004 0.03307,0.008 0.08373,0.0468 0.179968,0.065 0.27283,0.09 0.234551,0.0398 0.317608,0.0626 0.529157,0.0982 0.0082,10e-4 0.01654,0 0.02479,0 0.414056,0 -0.846131,0.0158 2.439103,0.1463 0.03856,0.002 0.0772,-0.001 0.115756,0 0.03866,10e-4 0.07709,0.007 0.115755,0.008 0.391572,-0.0188 0.775169,0.0401 1.165817,0.0565 0.07526,0.007 0.08422,0.008 0.157096,0.0165 0.02479,0.003 0.04949,0.007 0.07442,0.008 0.03028,0.002 0.06067,-0.001 0.09095,0 0.213945,0.0102 -0.02307,0.008 0.14056,0.008 1.211579,0.1216 2.595923,0.0597 3.687657,0.1796 0.02756,0.003 0.05512,0.005 0.08268,0.008 0.09914,0.01 0.05498,0.008 0.132292,0.008 0.0028,0 0.0055,2.6e-4 0.0083,0 0.120864,-0.0173 -0.03242,7.9e-4 0.115755,-0.0165 0.572268,-0.0731 0.816271,-0.0721 1.03351,-0.0565 0.131112,0.0203 0.252272,-0.002 0.3803,-0.0248 0.157038,-0.0393 -0.0049,0.004 0.107487,-0.0331 0.01103,-0.003 0.02204,-0.006 0.03307,-0.008 0.0028,-0.003 0.0048,-0.007 0.0083,-0.008 0.0024,-10e-4 0.007,0.002 0.0083,0 0.04642,-0.0967 0.157417,-0.10715 0.32255,-0.6281 0.006,-0.0164 0.01058,-0.0332 0.01654,-0.0496 1.88e-4,-5.3e-4 0.03303,-0.0825 0.03307,-0.0827 0.0044,-0.0162 0.0053,-0.0331 0.0083,-0.0496 0.0026,-0.0138 0.0055,-0.0276 0.0083,-0.0413 0.0028,-0.0138 -0.0062,-0.18546 -0.0034,-0.19916 0.0028,-0.0138 0.0067,-0.0274 0.0083,-0.0413 0.0013,-0.011 -0.0013,-0.0222 0,-0.0331 0.0028,-0.0225 0.01373,-0.0436 0.01654,-0.0661 0.0013,-0.011 -0.0013,-0.0221 0,-0.0331 0.138725,-0.80712 0.235234,-1.11866 0.316376,-1.88103 0.10716,-1.00682 0.08538,-1.06987 -0.02622,-1.68241 v -0.0576 0 -0.47129 -0.1819 0 c 0,0 0.0016,-0.0773 0,-0.0909 -0.0011,-0.009 -0.0068,-0.0162 -0.0083,-0.0248 -0.0013,-0.008 0,-0.0165 0,-0.0248 -0.0036,-0.15424 -0.02677,-0.30269 -0.05804,-0.4459 -0.0072,-0.0216 -0.01029,-0.0443 -0.01654,-0.0662 -0.06458,-0.20721 -0.144887,-0.23052 -0.33095,-0.3529 -0.04994,-0.025 -0.0035,0.001 -0.04134,-0.008 -0.352308,-0.0999 -0.626546,0.0386 -0.66284,0.4572 -0.158965,0.71731 -0.175422,1.03057 -0.24046,1.70309 -0.04197,0.40482 -0.01088,0.72768 -0.06564,1.15322 -0.0013,0.014 -0.02404,0.28465 -0.04923,0.52656 -0.0011,0.008 0.339098,-0.3226 0,0.0248 -0.95313,0.97646 -2.824331,0.60585 -4.061555,0.56068 l -0.739742,-0.0351 c -0.687677,-0.0585 -2.028093,-0.23125 -3.116401,-0.44229 -0.0081,-0.003 -0.01701,-0.004 -0.02479,-0.008 -0.0089,-0.004 -0.01593,-0.0121 -0.02479,-0.0165 -0.01558,-0.008 -0.03342,-0.01 -0.04961,-0.0165 -0.554837,-0.21238 -1.025712,-0.32367 -0.962623,-0.72161 0.0013,-0.009 0.007,-0.0162 0.0083,-0.0248 2.74e-4,-0.002 -0.02149,0.0928 0.0083,-0.0579 0.0011,-0.005 -0.0011,-0.0111 0,-0.0165 0.0016,-0.009 0.0068,-0.0162 0.0083,-0.0248 0.0013,-0.008 -0.0016,-0.0167 0,-0.0248 0.01198,-0.0116 0.0055,-0.0274 0.0083,-0.0413 0.0013,-0.009 0.0066,-0.0162 0.0083,-0.0248 0.04552,-0.3946 0.0581,-0.78041 0.0581,-1.19046 1.7e-4,-0.0193 0,-0.0386 0,-0.0579 -0.0016,-0.0112 -0.0067,-0.0218 -0.0083,-0.0331 -3.49e-4,-0.0413 0,-0.0827 0,-0.124 0,-0.22768 0.135878,-0.99605 0.158636,-1.28272 z"
         id="path553"
         sodipodi:nodetypes="cccccsscsccccccscscccccsccsccccccccssccssccccscscccsccsccccccccsccccccccccccccccccc" /></g></g></svg>
